<svg xmlns="http://www.w3.org/2000/svg" viewBox="0 0 113.4 113.4"><path d="M43.5 24.2h-3c0-5.7 4.6-10.3 10.3-10.3s10.3 4.6 10.3 10.3h-3c0-4-3.3-7.3-7.3-7.3s-7.3 3.3-7.3 7.3zm-17.4 7.3h11.4v-3H24.6c-.8 0-1.5.7-1.5 1.5v58.6c0 .8.7 1.5 1.5 1.5h25.2v-3H26.1V31.5zm50.9-3H64.1v3h11.4v26.2h3V30c0-.8-.7-1.5-1.5-1.5zm-45.2 16h37.4v-3H31.8v3zm0 6.9h37.4v-3H31.8v3zm6.8 27.4h-6.8v3h6.8v-3z" fill="#2c60f2"/><path d="M65.6 35.7V24.2c0-.8-.7-1.5-1.5-1.5H37.5c-.8 0-1.5.7-1.5 1.5v11.5c0 .8.7 1.5 1.5 1.5h26.6c.8 0 1.5-.6 1.5-1.5zm-3-1.5H39v-8.5h23.6v8.5zm4.9 19.7c-12.6 0-22.8 10.2-22.8 22.8s10.2 22.8 22.8 22.8 22.8-10.2 22.8-22.8S80 53.9 67.5 53.9zm0 42.6c-10.9 0-19.8-8.9-19.8-19.8s8.9-19.8 19.8-19.8 19.8 8.9 19.8 19.8-8.9 19.8-19.8 19.8zm9.1-30.7l2.4 1.8-14.9 20c-.3.4-.7.6-1.2.6s-.9-.2-1.2-.6l-8-11 2.4-1.8 6.8 9.3 13.7-18.3z" fill="#2d2d2d"/></svg>