<svg  xmlns="http://www.w3.org/2000/svg" viewBox="0 0 113.4 113.4"><path d="M96.1 24.8H81.4v-5.7h-3v5.7H53.7v-5.7h-3v5.7H36.1c-.8 0-1.5.7-1.5 1.5v29h3V41.4h57v41.5h-43v3H96c.8 0 1.5-.7 1.5-1.5V26.3c.1-.8-.6-1.5-1.4-1.5zM37.6 38.4V27.8h13.1v4h3v-4h24.7v4h3v-4h13.1v10.6H37.6zm18.2 10.7H44.4v-3h11.4v3zM44.4 53h11.4v3H44.4v-3zm26.7-3.9H59.8v-3h11.4v3zM59.8 53h11.4v3H59.8v-3zm26.8-3.9H75.3v-3h11.4v3zM75.3 53h11.4v3H75.3v-3zm-19.5 9.9h-5.7v-3h5.7v3zm4-3h11.4v3H59.8v-3zm0 6.8h11.4v3H59.8v-3zm15.5-6.8h11.4v3H75.3v-3zm0 6.8h11.4v3H75.3v-3z" fill="#2c60f2"/><path d="M36.1 53.7c-11.2 0-20.2 9.1-20.2 20.2S25 94.1 36.1 94.1c11.2 0 20.2-9.1 20.2-20.2s-9.1-20.2-20.2-20.2zm0 37.5c-9.5 0-17.2-7.7-17.2-17.2s7.7-17.2 17.2-17.2S53.3 64.5 53.3 74s-7.7 17.2-17.2 17.2zm1.5-18.4H47v3H36.1c-.8 0-1.5-.7-1.5-1.5V61.6h3v11.2z" fill="#2d2d2d"/></svg>