<svg xmlns="http://www.w3.org/2000/svg" xmlns:xlink="http://www.w3.org/1999/xlink" viewBox="0 0 113.4 113.4"><style>.st6,.st9{fill-rule:evenodd;clip-rule:evenodd;fill:#201600}.st9{opacity:.3;fill:#92bef2}</style><path class="st6" d="M105.5 30.9L96.6 22c-.2-.2-.6-.2-.9 0-.2.2-.2.6 0 .9l8.4 8.4-8.4 8.4c-.2.2-.2.6 0 .9.1.1.3.2.4.2.2 0 .3-.1.4-.2l8.9-8.9c.3-.1.3-.5.1-.8"/><path class="st6" d="M78.3 32h19.1c.3 0 .6-.3.6-.6s-.3-.6-.6-.6H78.3c-.3 0-.6.3-.6.6s.3.6.6.6"/><defs><path id="SVGID_1_" d="M9.3 31.4l8.4-8.4c.2-.2.2-.6 0-.9-.2-.2-.6-.2-.9 0L7.9 31c-.2.2-.2.6 0 .9l8.9 8.9c.1.1.3.2.4.2.2 0 .3-.1.4-.2.2-.2.2-.6 0-.9l-8.3-8.5z"/></defs><use xlink:href="#SVGID_1_" overflow="visible" fill-rule="evenodd" clip-rule="evenodd" fill="#201600"/><clipPath id="SVGID_2_"><use xlink:href="#SVGID_1_" overflow="visible"/></clipPath><g clip-path="url(#SVGID_2_)"><defs><path id="SVGID_3_" d="M7.7 21.7h11v20h-11z"/></defs><use xlink:href="#SVGID_3_" overflow="visible" fill="#201600"/><clipPath id="SVGID_4_"><use xlink:href="#SVGID_3_" overflow="visible"/></clipPath><path clip-path="url(#SVGID_4_)" fill="#201600" d="M2.7 16.9h20.1v29H2.7z"/></g><path class="st6" d="M15.4 31.4c0 .3.3.6.6.6h19c.3 0 .6-.3.6-.6s-.3-.6-.6-.6H16c-.4 0-.6.2-.6.6"/><path class="st9" d="M72.4 67c-1.6 0-2.9 1.3-2.9 2.9v-2c0-1.6-1.3-2.9-2.9-2.9-1.6 0-2.9 1.3-2.9 2.9v-2.1c0-1.6-1.3-2.9-2.9-2.9-1.6 0-2.9 1.3-2.9 2.9v-10c0-1.6-1.3-2.9-2.9-2.9-1.6 0-2.9 1.3-2.9 2.9v19s-5.4-4.7-7.6-4.7c-3.7 0-3.9 2.7-3.9 3.3 0 .6 10.2 10.4 12.8 13.1 2.6 2.7 5.2 4.8 7 4.8H66c5.9 0 9.7-5.1 9.7-9.6v-12c-.3-1.3-1.7-2.7-3.3-2.7"/><path class="st9" d="M54.8 45.1c-5.6 0-10.1 4.5-10.1 10.1 0 .3.3.6.6.6s.6-.3.6-.6c0-4.9 4-8.9 8.9-8.9s8.9 4 8.9 8.9c0 .3.3.6.6.6s.6-.3.6-.6c0-5.5-4.5-10.1-10.1-10.1"/><path class="st6" d="M44.2 36.1c-.6 0-1.2-.2-1.6-.5-.4-.4-.7-.8-.7-1.4h-1.3c.1.9.4 1.7 1.1 2.3.7.6 1.5.9 2.6.9s2-.3 2.7-.9c.7-.6 1-1.5 1-2.5s-.3-1.8-.9-2.3c-.6-.6-1.3-.9-2.3-.9v-.3l2.6-2.3v-1.5h-6.2v1.1h4.6v.3l-2.6 2.2v1.4c.2-.1.5-.1.9-.1.8 0 1.3.2 1.8.6.4.4.6.9.6 1.6 0 .7-.2 1.3-.6 1.7-.4.4-1 .6-1.7.6M53.3 37.3c1.1 0 2-.3 2.6-1 .6-.7 1-1.6 1-2.6s-.3-1.8-1-2.5c-.6-.6-1.4-1-2.4-1-.6 0-1.1.1-1.5.3-.4.2-.7.4-1 .7h-.3c0-1.2.3-2.1.8-2.7.5-.7 1.1-1 2-1 1 0 1.6.4 1.9 1.3h1.3c-.1-.7-.5-1.3-1-1.8-.6-.5-1.3-.7-2.1-.7-1.3 0-2.3.5-3 1.6-.7 1.1-1 2.5-1 4.2 0 1.8.3 3.1 1 3.9.6.9 1.5 1.3 2.7 1.3M51.6 32c.4-.4 1-.6 1.6-.6.7 0 1.2.2 1.7.6.4.4.6 1 .6 1.7 0 .8-.2 1.3-.6 1.8-.4.4-1 .6-1.6.6-.7 0-1.2-.2-1.7-.6-.4-.4-.7-1-.7-1.8.1-.7.3-1.2.7-1.7M62.2 37.3c1.2 0 2.1-.5 2.8-1.4.7-.9 1.1-2.3 1.1-4.1 0-1.8-.4-3.2-1.1-4.1-.7-.9-1.6-1.4-2.8-1.4-1.2 0-2.1.5-2.8 1.4-.7.9-1.1 2.3-1.1 4.1 0 1.8.4 3.2 1.1 4.1.7 1 1.7 1.4 2.8 1.4m-1.9-8.6c.4-.8 1.1-1.1 1.9-1.1s1.5.4 1.9 1.1c.4.8.6 1.8.6 3.2 0 1.3-.2 2.4-.6 3.2-.4.8-1.1 1.1-1.9 1.1s-1.5-.4-1.9-1.1c-.4-.8-.6-1.8-.6-3.2 0-1.4.2-2.4.6-3.2M70.5 32.2c.8 0 1.5-.3 2.1-.8.6-.6.8-1.3.8-2.1 0-.9-.3-1.6-.8-2.1-.6-.6-1.3-.9-2.1-.9s-1.5.3-2.1.9c-.6.6-.8 1.3-.8 2.1 0 .9.3 1.6.8 2.1.5.6 1.2.8 2.1.8m-1.4-4.4c.4-.4.9-.6 1.4-.6s1 .2 1.4.6c.4.4.6.9.6 1.5s-.2 1.1-.6 1.5c-.4.4-.9.6-1.4.6s-1-.2-1.4-.6c-.4-.4-.6-.9-.6-1.5s.2-1.1.6-1.5"/></svg>