<svg xmlns="http://www.w3.org/2000/svg" viewBox="0 0 113.4 113.4"><path d="M28.4 28.4H9.6V9.6h18.8v18.8zM66.1 9.6H47.3v18.8h18.8V9.6zm37.7 0H85v18.8h18.8V9.6zM47.3 28.4H28.4v18.8h18.8V28.4zm37.7 0H66.1v18.8H85V28.4zM66.1 47.3H47.3v18.8h18.8V47.3zm-37.7 0H9.6v18.8h18.8V47.3zm0 37.7H9.6v18.8h18.8V85zm37.7 0H47.3v18.8h18.8V85zm37.7-37.7H85v18.8h18.8V47.3zM85 66.1H66.1V85H85V66.1zm-37.7 0H28.4V85h18.8V66.1zM103.8 85H85v18.8h18.8V85z" opacity=".05" fill="#201600"/><path d="M41 82.9c-5.2 0-9.5-4.3-9.5-9.5s4.3-9.5 9.5-9.5 9.5 4.3 9.5 9.5-4.3 9.5-9.5 9.5zm0-16c-3.6 0-6.5 2.9-6.5 6.5s2.9 6.5 6.5 6.5 6.5-2.9 6.5-6.5-2.9-6.5-6.5-6.5zm32.1-17c-3.7 0-7.2-2.2-8.7-5.7-2.1-4.8.2-10.4 5-12.5 2.3-1 4.9-1 7.3-.1 2.4.9 4.2 2.7 5.2 5.1 1 2.3 1 4.9.1 7.3-.9 2.4-2.7 4.2-5.1 5.2-1.3.5-2.5.7-3.8.7zm0-16c-.9 0-1.7.2-2.6.5-3.3 1.4-4.8 5.2-3.4 8.5s5.2 4.8 8.5 3.4c1.6-.7 2.8-1.9 3.5-3.6s.6-3.4-.1-5-1.9-2.8-3.6-3.5c-.7-.1-1.5-.3-2.3-.3z" fill="#2d2d2d"/><path d="M43.1 96.4h-4.2c-.7 0-1.3-.4-1.4-1.1l-1.7-6c-.8-.3-1.6-.6-2.4-1l-5.4 3c-.6.3-1.3.2-1.8-.2l-3-3c-.5-.5-.6-1.2-.2-1.8l3-5.4c-.4-.8-.7-1.6-1-2.4l-6-1.7c-.6-.2-1.1-.8-1.1-1.4v-4.2c0-.7.4-1.3 1.1-1.4l6-1.7c.3-.8.6-1.6 1-2.4l-3-5.4c-.3-.6-.2-1.3.2-1.8l3-3c.5-.5 1.2-.6 1.8-.2l5.4 3c.8-.4 1.6-.7 2.4-1l1.7-6c.2-.6.8-1.1 1.4-1.1h4.2c.7 0 1.3.4 1.4 1.1l1.7 6c.8.3 1.6.6 2.4 1l5.4-3c.6-.3 1.3-.2 1.8.2l3 3c.5.5.6 1.2.2 1.8l-3 5.4c.4.8.7 1.6 1 2.4l6 1.7c.6.2 1.1.8 1.1 1.4v4.2c0 .7-.4 1.3-1.1 1.4l-6 1.7c-.3.8-.6 1.6-1 2.4l3 5.4c.3.6.2 1.3-.2 1.8l-3 3c-.5.5-1.2.6-1.8.2l-5.4-3c-.8.4-1.6.7-2.4 1l-1.7 6c-.1.7-.7 1.1-1.4 1.1zm-3-3H42l1.6-5.7c.1-.5.5-.9 1.1-1 1.1-.3 2.3-.8 3.3-1.4.5-.3 1-.3 1.5 0l5.1 2.9 1.4-1.4-3-5.1c-.3-.5-.3-1 0-1.5.6-1 1.1-2.1 1.4-3.3.1-.5.5-.9 1-1.1l5.7-1.6v-1.9l-5.7-1.6c-.5-.1-.9-.5-1-1.1-.3-1.1-.8-2.2-1.4-3.3-.3-.5-.3-1 0-1.5l2.9-5.1-1.4-1.4-5.1 2.9c-.5.3-1 .3-1.5 0-1-.6-2.1-1.1-3.3-1.4-.5-.1-.9-.5-1.1-1L42 53.3h-1.9L38.5 59c-.1.5-.5.9-1.1 1-1.1.3-2.2.8-3.3 1.4-.5.3-1 .3-1.5 0l-5.1-2.9-1.4 1.4L29 65c.3.5.3 1 0 1.5-.6 1-1.1 2.1-1.4 3.3-.1.5-.5.9-1 1.1l-5.7 1.6v1.9l5.7 1.6c.5.1.9.5 1 1.1.3 1.1.8 2.3 1.4 3.3.3.5.3 1 0 1.5L26.1 87l1.4 1.4 5.1-2.9c.5-.3 1-.3 1.5 0 1 .6 2.1 1.1 3.3 1.4.5.1.9.5 1.1 1l1.6 5.5zm27-30.7c-.2 0-.4 0-.6-.1L62.6 61c-.6-.2-1-.9-.9-1.6l.7-6.2c-.7-.6-1.3-1.2-1.9-1.8l-6.2.8c-.7.1-1.3-.3-1.6-.9L51 47.4c-.3-.6-.1-1.3.4-1.8l4.8-3.9c-.1-.9-.1-1.7 0-2.6l-4.9-3.8c-.5-.4-.7-1.1-.5-1.7l1.6-3.9c.2-.6.9-1 1.6-.9l6.2.7c.6-.7 1.2-1.3 1.8-1.9l-.8-6.2c-.1-.7.3-1.3.9-1.6l3.9-1.7c.6-.3 1.3-.1 1.8.4l3.9 4.8c.9-.1 1.7-.1 2.6 0l3.8-4.9c.4-.5 1.1-.7 1.7-.5l3.9 1.6c.6.2 1 .9.9 1.6l-.7 6.2c.7.6 1.3 1.2 1.9 1.8l6.2-.8c.7-.1 1.3.3 1.6.9l1.7 3.9c.3.6.1 1.3-.4 1.8l-4.8 3.9c.1.9.1 1.7 0 2.6l4.9 3.8c.5.4.7 1.1.5 1.7l-1.6 3.9c-.2.6-.9 1-1.6.9l-6.3-.5c-.6.7-1.2 1.3-1.8 1.9l.8 6.2c.1.7-.3 1.3-.9 1.6l-3.9 1.7c-.6.3-1.3.1-1.8-.4l-3.9-4.8c-.9.1-1.7.1-2.6 0l-3.8 4.9c-.1.2-.6.4-1 .4zm-2.3-4l1.8.7 3.6-4.7c.3-.4.8-.6 1.4-.6 1.2.1 2.4.1 3.6 0 .5-.1 1.1.1 1.4.5l3.7 4.6 1.8-.8-.8-5.8c-.1-.5.1-1 .6-1.4.9-.7 1.8-1.6 2.5-2.5.3-.4.8-.6 1.4-.6l5.9.6.7-1.8-4.7-3.6c-.4-.3-.6-.8-.6-1.4.1-1.2.1-2.4 0-3.6-.1-.5.1-1 .5-1.4l4.6-3.7-.8-1.8-5.8.8c-.5.1-1-.1-1.4-.6-.7-.9-1.6-1.8-2.5-2.5-.4-.3-.6-.8-.6-1.4l.6-5.9-1.8-.7-3.6 4.7c-.3.4-.8.6-1.4.6-1.2-.1-2.4-.1-3.6 0-.5.1-1-.1-1.4-.5l-3.7-4.6-1.8.8.8 5.8c.1.5-.1 1-.6 1.4-.9.7-1.8 1.6-2.5 2.5-.3.4-.8.7-1.4.6l-5.9-.6-.7 1.8 4.7 3.6c.4.3.6.8.6 1.4-.1 1.2-.1 2.4 0 3.6.1.5-.1 1-.5 1.4l-4.6 3.7.8 1.8 5.8-.8c.5-.1 1 .1 1.4.6.7.9 1.6 1.8 2.5 2.5.4.3.6.8.6 1.4l-.6 5.9z" fill="#2c60f2"/></svg>