<svg xmlns="http://www.w3.org/2000/svg" viewBox="0 0 113.4 113.4"><path d="M102.8 25.1c0-2.1-.9-4.1-2.4-5.5-1.5-1.4-3.4-2.2-5.5-2.2H49.4c-.8 0-1.5.7-1.5 1.5v4.7H37.4v3h10.4v4.7c0 .8.7 1.5 1.5 1.5H77L64.9 45.6l2.2 2.1L91.5 22c.9-.9 2.1-1.5 3.4-1.5 1.2 0 2.5.4 3.4 1.3.9.9 1.5 2.1 1.5 3.4s-.5 2.5-1.4 3.4L73 54.4l1.3 1.3-1.4 1.5c2.2 2 3.4 4.7 3.4 7.7V70H55.6v-5.2c0-2.9 1.2-5.7 3.4-7.7l-2-2.2c-2.8 2.5-4.4 6.1-4.4 9.9V70H24.5c-7.4 0-13.3 6-13.3 13.3s6 13.3 13.3 13.3H79c7.4 0 13.3-6 13.3-13.3 0-7.3-5.8-13.2-13-13.3v-5.2c0-3.3-1.3-6.6-3.5-9l24.7-25c1.5-1.6 2.3-3.6 2.3-5.7zm-52 4.8v-9.4h38l-9 9.4h-29zm38.5 53.4c0 5.7-4.6 10.3-10.3 10.3H24.5c-5.7 0-10.3-4.6-10.3-10.3S18.8 73 24.5 73H79c5.7 0 10.3 4.6 10.3 10.3zm-64.5-7.4c-4.1 0-7.4 3.3-7.4 7.4s3.3 7.4 7.4 7.4 7.4-3.3 7.4-7.4-3.4-7.4-7.4-7.4zm0 11.8c-2.4 0-4.4-2-4.4-4.4s2-4.4 4.4-4.4 4.4 2 4.4 4.4-2 4.4-4.4 4.4zm17.9-11.8c-4.1 0-7.4 3.3-7.4 7.4s3.3 7.4 7.4 7.4 7.4-3.3 7.4-7.4-3.3-7.4-7.4-7.4zm0 11.8c-2.4 0-4.4-2-4.4-4.4s2-4.4 4.4-4.4 4.4 2 4.4 4.4-1.9 4.4-4.4 4.4zm18-11.8c-4.1 0-7.4 3.3-7.4 7.4s3.3 7.4 7.4 7.4 7.4-3.3 7.4-7.4-3.3-7.4-7.4-7.4zm0 11.8c-2.4 0-4.4-2-4.4-4.4s2-4.4 4.4-4.4 4.4 2 4.4 4.4-2 4.4-4.4 4.4zm10.6-4.4c0 4.1 3.3 7.4 7.4 7.4s7.4-3.3 7.4-7.4-3.3-7.4-7.4-7.4-7.4 3.3-7.4 7.4zm11.8 0c0 2.4-2 4.4-4.4 4.4s-4.4-2-4.4-4.4 2-4.4 4.4-4.4 4.4 2 4.4 4.4zM21.9 61.6h2c.8 0 1.5-.7 1.5-1.5v-7.7h9.4v7.7c0 .8.7 1.5 1.5 1.5h2.1c.5 0 1-.3 1.3-.7l9.7-15c.3-.4.3-.9.1-1.4-.2-.4-.6-.8-1-.9l-16.9-4.3v-7.6h-3v7.6l-16.9 4.3c-.5.1-.9.5-1 .9-.2.5-.1 1 .1 1.4l9.8 15c.3.5.8.7 1.3.7zm8.3-19.5l15.7 4L38 58.4v-7.5c0-.8-.7-1.5-1.5-1.5H23.9c-.8 0-1.5.7-1.5 1.5v7.3l-7.9-12.1 15.7-4z" fill="#87c0f8"/><path d="M30.2 34.3c-4.8 0-8.8-3.9-8.8-8.8s3.9-8.8 8.8-8.8 8.8 3.9 8.8 8.8-4 8.8-8.8 8.8zm0-14.6c-3.2 0-5.8 2.6-5.8 5.8s2.6 5.8 5.8 5.8 5.8-2.6 5.8-5.8-2.7-5.8-5.8-5.8zM66 64.3c-5.3 0-9.6-4.3-9.6-9.6s4.3-9.6 9.6-9.6 9.6 4.3 9.6 9.6-4.4 9.6-9.6 9.6zm0-16.2c-3.6 0-6.6 3-6.6 6.6s3 6.6 6.6 6.6c3.6 0 6.6-3 6.6-6.6s-3-6.6-6.6-6.6z" fill="#fff"/></svg>