<svg id="Слой_1" xmlns="http://www.w3.org/2000/svg" viewBox="0 0 113.4 113.4"><path d="M34.3 60.3c-3.7 0-6.6 3-6.6 6.6 0 3.7 3 6.6 6.6 6.6s6.6-3 6.6-6.6c0-3.6-3-6.6-6.6-6.6zm0 10.3c-2 0-3.6-1.6-3.6-3.6s1.6-3.6 3.6-3.6 3.6 1.6 3.6 3.6-1.6 3.6-3.6 3.6zm44.8-10.3c-3.7 0-6.6 3-6.6 6.6 0 3.7 3 6.6 6.6 6.6s6.6-3 6.6-6.6c.1-3.6-2.9-6.6-6.6-6.6zm0 10.3c-2 0-3.6-1.6-3.6-3.6s1.6-3.6 3.6-3.6 3.6 1.6 3.6 3.6-1.6 3.6-3.6 3.6zM56.7 15.9c-3.7 0-6.6 3-6.6 6.6s3 6.6 6.6 6.6 6.6-3 6.6-6.6-2.9-6.6-6.6-6.6zm0 10.3c-2 0-3.6-1.6-3.6-3.6s1.6-3.6 3.6-3.6 3.6 1.6 3.6 3.6-1.6 3.6-3.6 3.6z" fill="#fff"/><path d="M34.3 76.5c-6.6 0-12 5.4-12 12V96c0 .8.7 1.5 1.5 1.5h21c.8 0 1.5-.7 1.5-1.5v-7.5c0-6.6-5.4-12-12-12zm9 18h-18v-6c0-5 4-9 9-9s9 4 9 9v6zm35.8-18c-6.6 0-12 5.4-12 12V96c0 .8.7 1.5 1.5 1.5h21c.8 0 1.5-.7 1.5-1.5v-7.5c0-6.6-5.4-12-12-12zm9 18h-18v-6c0-5 4-9 9-9s9 4 9 9v6zM46.2 53.1h21c.8 0 1.5-.7 1.5-1.5v-7.5c0-6.6-5.4-12-12-12s-12 5.4-12 12v7.5c0 .8.7 1.5 1.5 1.5zm1.5-9c0-5 4-9 9-9s9 4 9 9v6h-18v-6zm10.5 22.7l6.1 6.1-2.1 2.1-5.5-5.5-5.5 5.5-2.1-2.1 6.1-6.1v-8.3h3v8.3z" fill="#87c0f8"/></svg>