<svg id="Слой_1" xmlns="http://www.w3.org/2000/svg" viewBox="0 0 113.4 113.4"><path d="M45.3 73.1l2.7 1.2-9.2 20.4-2.7-1.2 9.2-20.4zm23.2-.1l-2.7 1.2L75 94.7l2.7-1.2L68.5 73zm-2.2-27.7H59l-2.3-7-2.3 7H47l6 4.3-2.3 7 6-4.3 6 4.3-2.3-7 5.9-4.3z" fill="#fff"/><path d="M76.2 72.5c1.2-1.3 2.1-2.9 2.5-4.8.3-1.9 1.5-3.5 3.2-4.4 4.4-2.3 6.1-7.7 4-12.2-.8-1.7-.8-3.7 0-5.4 2.2-4.5.5-9.8-4-12.2-1.7-.9-2.9-2.5-3.2-4.4-.9-4.9-5.4-8.2-10.4-7.5-1.9.3-3.8-.3-5.2-1.7-3.6-3.5-9.2-3.5-12.8 0-1.4 1.3-3.3 2-5.2 1.7-4.9-.7-9.5 2.6-10.4 7.5-.3 1.9-1.5 3.5-3.2 4.4-4.4 2.3-6.1 7.7-4 12.2.8 1.7.8 3.7 0 5.4-2.2 4.5-.5 9.8 4 12.2 1.7.9 2.9 2.5 3.2 4.4.4 2.1 1.4 3.8 2.8 5.1L27.8 94c-.2.5-.2 1 .1 1.5.3.4.7.7 1.2.7h.1l15.3-.8c.6 0 1.1-.4 1.3-.9l6.9-15.8c1.2.6 2.6.9 3.9.9 1.5 0 3-.4 4.3-1.1l7 16c.2.5.7.9 1.3.9l15.3.8h.1c.5 0 1-.2 1.2-.7.3-.4.3-1 .1-1.5l-9.7-21.5zM43.5 92.3l-11.9.7 8.5-18.4c1.5.7 3.3 1 5 .7 1.9-.3 3.8.3 5.2 1.7l-6.8 15.3zm8.9-17.5c-1.7-1.7-4-2.6-6.4-2.6-.4 0-.9 0-1.3.1-3.3.5-6.4-1.8-7-5.1-.5-2.8-2.2-5.2-4.8-6.5-3-1.6-4.1-5.2-2.7-8.2 1.3-2.6 1.3-5.5 0-8.1-1.5-3-.3-6.6 2.7-8.2 2.5-1.3 4.3-3.7 4.8-6.5.6-3.3 3.6-5.5 7-5.1 2.8.4 5.6-.5 7.7-2.5 2.4-2.3 6.2-2.3 8.6 0 2.1 2 4.9 2.9 7.7 2.5 3.3-.5 6.4 1.8 7 5.1.5 2.8 2.2 5.2 4.8 6.5 3 1.6 4.1 5.2 2.7 8.2-1.3 2.6-1.3 5.5 0 8.1 1.5 3 .3 6.6-2.7 8.2-2.5 1.3-4.3 3.7-4.8 6.5-.6 3.3-3.6 5.5-7 5.1-2.8-.4-5.6.5-7.7 2.5-2.4 2.3-6.2 2.3-8.6 0zm18 17.5l-6.9-15.7c1.3-1.1 3.1-1.6 4.8-1.4 1.9.3 3.8-.1 5.4-.9L82.3 93l-11.9-.7zm6.3-43.9c0-11-9-20-20-20s-20 9-20 20 9 20 20 20 20-9 20-20zm-20 17c-9.4 0-17-7.6-17-17s7.6-17 17-17 17 7.6 17 17-7.6 17-17 17z" fill="#87c0f8"/></svg>