<svg width="15" height="15" viewBox="0 0 15 15" fill="none" xmlns="http://www.w3.org/2000/svg">
<path d="M11.2298 7.45858C11.2298 5.96686 10.4011 4.72377 9.15802 4.14365V5.96686L11.2298 8.03869C11.2298 7.79007 11.2298 7.62432 11.2298 7.45858ZM13.3017 7.45858C13.3017 8.20444 13.1359 8.95029 12.8873 9.61328L14.1304 10.8564C14.7105 9.8619 14.9591 8.6188 14.9591 7.37571C14.9591 3.81216 12.4729 0.828731 9.15802 0.0828731V1.82321C11.5613 2.65194 13.3017 4.80664 13.3017 7.45858ZM1.11934 0L0.0419922 1.07735L3.93702 4.97239H0.0419922V9.94477H3.35691L7.50056 14.0884V8.53593L11.0641 12.0995C10.4839 12.5138 9.90387 12.8453 9.15802 13.094V14.8343C10.3182 14.5857 11.3127 14.0885 12.2243 13.3426L13.8818 15.0001L14.9591 13.9227L7.50056 6.46417L1.11934 0ZM7.50056 0.828731L5.76023 2.56907L7.50056 4.3094V0.828731Z" fill="white"/>
</svg>
