<?xml version="1.0" standalone="no"?>
<!DOCTYPE svg PUBLIC "-//W3C//DTD SVG 1.1//EN" "http://www.w3.org/Graphics/SVG/1.1/DTD/svg11.dtd" >
<svg xmlns="http://www.w3.org/2000/svg" xmlns:xlink="http://www.w3.org/1999/xlink" version="1.1">
<metadata></metadata>
<defs>
<font id="formularmedium" horiz-adv-x="565" >
<font-face units-per-em="2048" ascent="1591" descent="-457" />
<missing-glyph horiz-adv-x="569" />
<glyph horiz-adv-x="0" />
<glyph horiz-adv-x="682" />
<glyph unicode=" "  horiz-adv-x="569" />
<glyph unicode="&#x09;" horiz-adv-x="569" />
<glyph unicode="&#xa0;" horiz-adv-x="569" />
<glyph unicode="!" horiz-adv-x="675" d="M205 0v274h264v-274h-264zM219 864v598h236v-598l-43 -450h-150z" />
<glyph unicode="&#x22;" horiz-adv-x="886" d="M154 907v555h213v-555h-213zM520 907v555h213v-555h-213z" />
<glyph unicode="#" horiz-adv-x="1265" d="M66 381v180h229l51 309h-209v181h236l61 383h184l-59 -383h254l61 383h185l-62 -383h203v-181h-229l-49 -309h206v-180h-235l-59 -381h-189l62 381h-254l-60 -381h-188l61 381h-200zM481 561h254l49 309h-254z" />
<glyph unicode="$" horiz-adv-x="1312" d="M94 424h236q18 -103 87 -165.5t171 -74.5v467l-90 21q-355 80 -355 377q0 163 119 282t326 131v172h129v-176q183 -13 302.5 -123t139.5 -278h-233q-18 81 -71.5 132.5t-137.5 61.5v-409l94 -21q184 -33 285.5 -137t101.5 -274q0 -173 -129 -299t-354 -138v-174h-127v176 q-215 17 -343 134t-151 315zM379 1057q0 -81 46.5 -124t162.5 -69v391q-93 -6 -151 -60t-58 -138zM717 180q106 5 176 66t70 153q0 175 -209 222l-37 8v-449z" />
<glyph unicode="%" horiz-adv-x="1802" d="M88 1075q0 170 86 279q85 108 248 108q162 0 248 -108q88 -107 88 -279q0 -171 -88 -278q-86 -109 -248 -109t-248 109t-86 278zM254 1075q0 -110 43.5 -173.5t124.5 -63.5q83 0 126.5 63t43.5 174q0 109 -43.5 173.5t-126.5 64.5q-80 0 -124 -65t-44 -173zM377 0 l868 1434h180l-866 -1434h-182zM1042 360q0 170 86 279q89 109 250 109q162 0 248 -109q88 -107 88 -279q0 -171 -88 -278q-86 -109 -248 -109q-161 0 -250 109q-86 109 -86 278zM1208 360q0 -110 43 -174q42 -63 127 -63q83 0 127 65q43 64 43 172t-45 173t-125 65 q-83 0 -126.5 -64.5t-43.5 -173.5z" />
<glyph unicode="&#x26;" horiz-adv-x="1521" d="M113 391q0 231 252 395v50q-72 87 -107 149q-31 64 -31 148q0 147 100.5 238t264.5 91q166 0 276 -90q111 -88 111 -235q0 -109 -66 -187q-67 -80 -206 -178l311 -321q63 106 84 249h223q-29 -225 -154 -403l291 -297h-284l-123 125h-49q-184 -152 -408 -152 q-219 0 -352 109q-133 112 -133 309zM342 397q0 -105 72 -165t192 -60q167 0 281 123l-355 367l-59 -39q-131 -88 -131 -226zM440 1128q0 -86 105 -188l39 -37l67 49q115 89 115 178q0 65 -47.5 105.5t-120.5 40.5q-72 0 -115 -39.5t-43 -108.5z" />
<glyph unicode="'" horiz-adv-x="520" d="M154 907v555h213v-555h-213z" />
<glyph unicode="(" horiz-adv-x="634" d="M94 639q0 527 314 915h208q-315 -434 -315 -915q0 -491 326 -928h-209q-324 392 -324 928z" />
<glyph unicode=")" horiz-adv-x="634" d="M8 -289q326 437 326 928q0 479 -316 915h209q314 -388 314 -915q0 -536 -324 -928h-209z" />
<glyph unicode="*" horiz-adv-x="995" d="M55 1081l54 162l315 -117l-10 336h168l-13 -336l318 117l53 -162l-324 -94l207 -264l-137 -102l-190 278l-187 -278l-137 102l205 264z" />
<glyph unicode="+" horiz-adv-x="1388" d="M170 489v197h424v424h199v-424h426v-197h-426v-423h-199v423h-424z" />
<glyph unicode="," d="M135 -264l135 219v45h-120v274h264v-319l-135 -219h-144z" />
<glyph unicode="-" horiz-adv-x="786" d="M98 471v203h590v-203h-590z" />
<glyph unicode="." d="M150 0v274h264v-274h-264z" />
<glyph unicode="/" horiz-adv-x="866" d="M-4 -289l618 1843h197l-612 -1843h-203z" />
<glyph unicode="0" horiz-adv-x="1302" d="M106 717q0 371 150 559q149 186 395 186q247 0 396 -186t149 -559t-149 -559q-150 -185 -396 -185q-245 0 -395 185q-150 187 -150 559zM346 717q0 -238 72 -385q75 -146 233 -146q161 0 232 146q73 143 73 385t-73 385q-71 147 -232 147q-159 0 -233 -147 q-72 -147 -72 -385z" />
<glyph unicode="1" horiz-adv-x="1060" d="M113 997v240l286 197h285v-1225h305v-209h-874v209h331v981h-49z" />
<glyph unicode="2" horiz-adv-x="1218" d="M104 1020q12 212 145.5 327t356.5 115q217 0 348 -119q133 -118 133 -329q0 -256 -290 -488l-332 -268v-49h663v-209h-1022v256l515 406q111 86 169 169.5t58 180.5q0 114 -65.5 175.5t-182.5 61.5q-111 0 -178.5 -58t-79.5 -171h-238z" />
<glyph unicode="3" horiz-adv-x="1202" d="M57 420h240q10 -108 88.5 -171t196.5 -63q133 0 210.5 72t77.5 197q0 126 -75.5 198t-210.5 72q-76 0 -129 -12v217l309 252v49h-608v203h880v-252l-311 -252v-51q171 -11 277 -123.5t106 -300.5q0 -221 -147 -353q-144 -129 -379 -129q-228 0 -371 125 q-145 127 -154 322z" />
<glyph unicode="4" horiz-adv-x="1275" d="M76 322v258l631 854h297v-904h186v-208h-186v-322h-232v322h-696zM311 530h467v633h-49l-418 -583v-50z" />
<glyph unicode="5" horiz-adv-x="1249" d="M113 420h237q13 -114 85 -174t192 -60q128 0 204 80.5t76 216.5q0 135 -75.5 215t-200.5 80q-170 0 -256 -121h-230l64 777h854v-203h-666l-26 -350h49q110 90 266 90q206 0 332 -135q129 -135 129 -347q0 -231 -143 -374q-145 -142 -369 -142q-231 0 -370.5 123 t-151.5 324z" />
<glyph unicode="6" horiz-adv-x="1245" d="M106 684q0 229 58 397q62 177 192 279t314 102t307 -102t147 -258h-235q-47 158 -223 158q-148 0 -235.5 -115.5t-94.5 -325.5h49q107 125 317 125q195 0 328 -133t133 -338q0 -211 -139 -356q-138 -144 -369 -144q-254 0 -401 170q-148 171 -148 541zM375 467 q0 -133 76.5 -211t199.5 -78q124 0 198.5 76.5t74.5 210.5q0 132 -75.5 206t-199.5 74t-199 -73.5t-75 -204.5z" />
<glyph unicode="7" horiz-adv-x="1148" d="M98 1227v207h946v-254l-595 -1180h-250l600 1178v49h-701z" />
<glyph unicode="8" horiz-adv-x="1273" d="M100 397q0 122 63 211.5t154 124.5v49q-74 39 -123 115t-49 180q0 168 136 277q135 108 356 108q222 0 354 -108q135 -108 135 -277q0 -102 -49 -179.5t-123 -115.5v-49q91 -35 154 -124.5t63 -211.5q0 -182 -145 -303t-389 -121q-248 0 -393 121q-144 120 -144 303z M338 420q0 -110 80 -176t219 -66q138 0 218.5 66t80.5 176t-80.5 176t-218.5 66q-139 0 -219 -66t-80 -176zM377 1059q0 -96 73 -154.5t187 -58.5t186 58.5t72 154.5t-72 153.5t-186 57.5q-113 0 -186.5 -59t-73.5 -152z" />
<glyph unicode="9" horiz-adv-x="1245" d="M82 963q0 211 139 356q137 143 369 143q254 0 401 -170q148 -171 148 -540q0 -223 -60 -400q-59 -175 -189.5 -277t-314.5 -102q-183 0 -307 103q-123 102 -147 258h235q47 -158 224 -158q148 0 235 115t94 325h-49q-106 -124 -317 -124q-199 0 -330 131t-131 340z M322 971q0 -133 75 -207t199 -74t199 74t75 205q0 133 -76.5 210.5t-199.5 77.5q-124 0 -198 -76t-74 -210z" />
<glyph unicode=":" d="M150 0v274h264v-274h-264zM150 768v274h264v-274h-264z" />
<glyph unicode=";" d="M135 -264l135 219v45h-120v274h264v-319l-135 -219h-144zM150 768v274h264v-274h-264z" />
<glyph unicode="&#x3c;" horiz-adv-x="1372" d="M170 502v170l1032 458v-204l-719 -316v-49l719 -313v-205z" />
<glyph unicode="=" horiz-adv-x="1384" d="M170 279v198h1044v-198h-1044zM170 696v199h1044v-199h-1044z" />
<glyph unicode="&#x3e;" horiz-adv-x="1372" d="M170 43v205l717 313v49l-717 316v204l1032 -458v-170z" />
<glyph unicode="?" horiz-adv-x="1153" d="M84 1042q3 201 129 324t348 123q220 0 345.5 -112.5t125.5 -299.5q0 -100 -39 -174q-38 -78 -80 -117t-131 -104q-82 -62 -104 -96q-27 -40 -27 -117v-55h-235v55q0 122 45 190q47 71 170 168q47 35 88 72q31 29 53.5 76t22.5 102q0 88 -63.5 147.5t-166.5 59.5 q-237 0 -246 -242h-235zM399 0v274h265v-274h-265z" />
<glyph unicode="@" horiz-adv-x="1998" d="M111 432q0 427 268 707q267 282 696 282q221 0 404 -86q189 -88 300 -261t111 -396q0 -255 -121 -432q-119 -174 -337 -174q-190 0 -242 118h-41q-100 -118 -260 -118q-154 0 -242 99t-88 271q0 208 121 359q124 151 317 151q72 0 128 -27.5t81 -68.5h41l17 68h188 l-86 -521q-10 -75 -10 -100q0 -104 114 -104t199 125q86 127 86 356q0 276 -190 448t-508 172q-352 0 -582 -239q-229 -238 -229 -627q0 -193 69 -346q72 -160 235.5 -258t389.5 -98q258 0 469 141l59 -106q-237 -156 -538 -156q-374 0 -598 227q-221 226 -221 594zM768 449 q0 -104 43 -161t127 -57q110 0 180 99q72 101 72 248q0 215 -174 215q-110 0 -180 -105q-68 -103 -68 -239z" />
<glyph unicode="A" horiz-adv-x="1443" d="M39 0l485 1462h394l487 -1462h-252l-135 420h-600l-133 -420h-246zM487 639h459l-186 584h-88z" />
<glyph unicode="B" horiz-adv-x="1460" d="M178 0v1462h662q227 0 350 -108q125 -107 125 -271q0 -209 -154 -292v-50q87 -39 142 -127.5t55 -195.5q0 -191 -130.5 -304.5t-369.5 -113.5h-680zM424 213h401q281 0 281 221q0 219 -281 219h-401v-440zM424 862h393q246 0 246 195q0 192 -246 192h-393v-387z" />
<glyph unicode="C" horiz-adv-x="1490" d="M106 731q0 337 183 547q184 211 508 211q231 0 383 -119q154 -118 194 -313h-258q-68 209 -319 209q-212 0 -328 -152q-113 -149 -113 -383q0 -235 111 -385q113 -149 328 -149q133 0 221 64t117 181h258q-39 -216 -196.5 -342.5t-399.5 -126.5q-324 0 -506 209 q-183 213 -183 549z" />
<glyph unicode="D" horiz-adv-x="1540" d="M178 0v1462h580q330 0 502 -196q174 -195 174 -535q0 -339 -174 -534q-176 -197 -502 -197h-580zM424 223h313q222 0 334.5 136t112.5 372t-111.5 372t-335.5 136h-313v-1016z" />
<glyph unicode="E" horiz-adv-x="1349" d="M178 0v1462h1051v-223h-805v-377h637v-219h-637v-420h831v-223h-1077z" />
<glyph unicode="F" horiz-adv-x="1314" d="M178 0v1462h1051v-223h-805v-401h643v-220h-643v-618h-246z" />
<glyph unicode="G" horiz-adv-x="1542" d="M106 731q0 337 183 547q184 211 512 211q233 0 386.5 -114t196.5 -312h-256q-62 203 -327 203q-218 0 -332 -150q-113 -149 -113 -385q0 -238 113 -387t332 -149q182 0 278 102.5t101 288.5h-400v209h647v-160q0 -104 -21.5 -198.5t-69.5 -180t-119.5 -148t-178.5 -99 t-239 -36.5q-329 0 -510 211q-183 213 -183 547z" />
<glyph unicode="H" horiz-adv-x="1576" d="M178 0v1462h246v-594h731v594h246v-1462h-246v639h-731v-639h-246z" />
<glyph unicode="I" horiz-adv-x="622" d="M188 0v1462h246v-1462h-246z" />
<glyph unicode="J" horiz-adv-x="1214" d="M68 453h245q18 -256 250 -256q110 0 171 72t61 210v983h245v-983q0 -238 -126.5 -372t-352.5 -134q-217 0 -350 127.5t-143 352.5z" />
<glyph unicode="K" horiz-adv-x="1507" d="M178 0v1462h246v-661l674 661h291l-445 -454l504 -1008h-260l-406 791h-49l-309 -304v-487h-246z" />
<glyph unicode="L" horiz-adv-x="1304" d="M178 0v1462h246v-1231h797v-231h-1043z" />
<glyph unicode="M" horiz-adv-x="1785" d="M178 0v1462h389l303 -637h50l299 637h391v-1462h-234v1169h-49l-309 -641h-250l-307 641h-49v-1169h-234z" />
<glyph unicode="N" horiz-adv-x="1585" d="M178 0v1462h346l602 -1106h50v1106h233v-1462h-346l-602 1106h-49v-1106h-234z" />
<glyph unicode="O" horiz-adv-x="1607" d="M106 731q0 333 185 545q186 213 514 213q329 0 512 -213q184 -211 184 -545t-184 -545q-183 -213 -512 -213q-328 0 -514 213q-185 212 -185 545zM356 731q0 -234 113 -383q115 -151 336 -151q219 0 334 151q112 147 112 383t-112 383q-116 152 -334 152 q-220 0 -336 -152q-113 -149 -113 -383z" />
<glyph unicode="P" horiz-adv-x="1435" d="M178 0v1462h643q243 0 377.5 -119t134.5 -331q0 -216 -134 -336.5t-378 -120.5h-397v-555h-246zM424 772h360q299 0 299 238q0 119 -71 177t-228 58h-360v-473z" />
<glyph unicode="Q" horiz-adv-x="1607" d="M106 731q0 333 185 545q186 213 514 213q329 0 512 -213q184 -211 184 -545q0 -350 -201 -563l193 -315h-236l-116 196q-143 -76 -336 -76q-328 0 -514 213q-185 212 -185 545zM356 731q0 -234 113 -383q115 -151 336 -151q128 0 217 51l-246 414h225l166 -273 q84 137 84 342q0 236 -112 383q-116 152 -334 152q-220 0 -336 -152q-113 -149 -113 -383z" />
<glyph unicode="R" horiz-adv-x="1470" d="M178 0v1462h668q235 0 366 -116.5t131 -323.5q0 -274 -219 -383l226 -639h-250l-207 586q-58 -4 -129 -4h-340v-582h-246zM424 795h387q283 0 283 225q0 114 -68 169.5t-215 55.5h-387v-450z" />
<glyph unicode="S" horiz-adv-x="1386" d="M94 428h250q40 -240 367 -240q141 0 227 60.5t86 163.5q0 93 -53.5 142t-167.5 75q-30 9 -156 30q-35 7 -68.5 13.5t-46.5 9t-14 2.5q-176 33 -270 130t-94 255q0 181 141 301q143 119 391 119q231 0 379.5 -111t173.5 -301h-250q-47 197 -307 197q-126 0 -203.5 -52.5 t-77.5 -146.5q0 -77 53 -117.5t160 -62.5l134 -27l141 -26q383 -82 383 -420q0 -191 -150 -320q-147 -129 -422 -129q-262 0 -424 125q-161 124 -182 330z" />
<glyph unicode="T" horiz-adv-x="1251" d="M35 1245v217h1182v-217h-467v-1245h-246v1245h-469z" />
<glyph unicode="U" horiz-adv-x="1536" d="M174 530v932h246v-925q0 -157 92 -248.5t256 -91.5q166 0 257 90t91 250v925h246v-932q0 -265 -155 -411t-439 -146t-439 146t-155 411z" />
<glyph unicode="V" horiz-adv-x="1406" d="M39 1462h256l360 -1220h99l360 1220h254l-448 -1462h-433z" />
<glyph unicode="W" horiz-adv-x="1847" d="M115 1462h237l140 -1175h49l223 706h319l226 -706h49l141 1175h234l-181 -1462h-372l-232 760h-49l-233 -760h-373z" />
<glyph unicode="X" horiz-adv-x="1374" d="M41 0l420 770l-361 692h258l295 -559h70l301 559h256l-367 -684l420 -778h-276l-336 633h-70l-344 -633h-266z" />
<glyph unicode="Y" horiz-adv-x="1353" d="M33 1462h264l350 -624h58l350 624h264l-520 -923v-539h-246v539z" />
<glyph unicode="Z" horiz-adv-x="1343" d="M94 0v274l815 914v51h-759v223h1067v-274l-814 -914v-51h844v-223h-1153z" />
<glyph unicode="[" horiz-adv-x="722" d="M150 -289v1843h458v-176h-252v-1491h252v-176h-458z" />
<glyph unicode="\" horiz-adv-x="866" d="M55 1554h197l618 -1843h-202z" />
<glyph unicode="]" horiz-adv-x="722" d="M115 -113h252v1491h-252v176h458v-1843h-458v176z" />
<glyph unicode="^" horiz-adv-x="1163" d="M82 580l420 839h157l420 -839h-213l-264 530h-43l-262 -530h-215z" />
<glyph unicode="_" horiz-adv-x="1042" d="M-2 -135h1046v-160h-1046v160z" />
<glyph unicode="`" horiz-adv-x="598" d="M82 1489h252l182 -297h-205z" />
<glyph unicode="a" horiz-adv-x="1171" d="M82 315q0 141 102 246t312 105h307v30q0 92 -55 141.5t-164 49.5q-194 0 -209 -133h-230q7 145 125 230t305 85q215 0 333 -95.5t118 -281.5v-692h-215v96h-49q-94 -123 -307 -123q-171 0 -273 99q-100 100 -100 243zM315 330q0 -79 55.5 -123.5t155.5 -44.5 q118 0 197 76q80 77 80 184v80h-266q-108 0 -165 -45t-57 -127z" />
<glyph unicode="b" horiz-adv-x="1288" d="M160 0v1489h231v-547h49q95 127 299 127q207 0 328 -154q123 -153 123 -393q0 -242 -123 -395q-121 -154 -328 -154q-204 0 -307 127h-49v-100h-223zM385 522q0 -155 75.5 -253.5t213.5 -98.5q134 0 209 95.5t75 256.5t-74.5 255.5t-209.5 94.5q-138 0 -213.5 -97.5 t-75.5 -252.5z" />
<glyph unicode="c" horiz-adv-x="1163" d="M98 522q0 246 138 396q139 151 378 151q185 0 306.5 -94t144.5 -250h-229q-47 147 -220 147q-141 0 -213.5 -94.5t-72.5 -253.5q0 -162 72.5 -258t213.5 -96q190 0 228 164h229q-25 -165 -149 -263t-310 -98q-238 0 -378 152q-138 150 -138 397z" />
<glyph unicode="d" horiz-adv-x="1288" d="M98 522q0 239 121 393q124 154 330 154q204 0 299 -127h49v547h231v-1489h-223v100h-49q-103 -127 -307 -127q-206 0 -330 154q-121 154 -121 395zM330 522q0 -161 75 -256.5t209 -95.5q138 0 213.5 98.5t75.5 253.5t-75.5 252.5t-213.5 97.5q-135 0 -209.5 -94.5 t-74.5 -255.5z" />
<glyph unicode="e" horiz-adv-x="1193" d="M98 528q0 250 138 394q138 147 376 147q226 0 353 -139q130 -139 133 -350v-78h-770q9 -332 293 -332q180 0 227 133h235q-31 -153 -152 -241.5t-313 -88.5q-241 0 -380 154q-140 155 -140 401zM338 674h522q-12 95 -78 153t-172 58q-113 0 -182 -56t-90 -155z" />
<glyph unicode="f" horiz-adv-x="786" d="M51 846v196h166v97q0 350 387 350h117v-197h-115q-79 0 -118 -44.5t-39 -119.5v-86h272v-196h-272v-846h-232v846h-166z" />
<glyph unicode="g" horiz-adv-x="1288" d="M98 539q0 235 125 381q125 149 334 149q207 0 299 -127h49v100h223v-991q0 -222 -137 -350q-138 -129 -366 -129q-210 0 -339.5 88.5t-148.5 247.5h230q27 -146 254 -146q276 0 276 306v69h-49q-89 -127 -291 -127q-207 0 -334 148q-125 146 -125 381zM330 539 q0 -151 76 -241.5t208 -90.5q136 0 213.5 93.5t77.5 238.5q0 147 -77.5 240t-213.5 93q-132 0 -208 -91t-76 -242z" />
<glyph unicode="h" horiz-adv-x="1269" d="M160 0v1489h231v-547h49q95 127 297 127q187 0 287 -110t100 -308v-651h-231v606q0 256 -231 256q-119 0 -197 -90q-74 -89 -74 -215v-557h-231z" />
<glyph unicode="i" horiz-adv-x="557" d="M160 1266v223h237v-223h-237zM162 0v1042h231v-1042h-231z" />
<glyph unicode="j" horiz-adv-x="579" d="M-82 -213h94q174 0 174 184v1071h232v-1085q0 -180 -97.5 -273.5t-271.5 -93.5h-131v197zM182 1266v223h238v-223h-238z" />
<glyph unicode="k" horiz-adv-x="1179" d="M160 0v1489h231v-907l438 460h265l-301 -323l362 -719h-246l-268 524h-49l-201 -221v-303h-231z" />
<glyph unicode="l" horiz-adv-x="550" d="M160 0v1489h231v-1489h-231z" />
<glyph unicode="m" horiz-adv-x="1800" d="M160 0v1042h223v-94h49q80 121 262 121q188 0 271 -127h49q95 127 289 127q176 0 264 -104.5t88 -298.5v-666h-232v627q0 235 -178 235q-103 0 -162 -74t-59 -194v-594h-231v625q0 237 -179 237q-107 0 -165 -81t-58 -214v-567h-231z" />
<glyph unicode="n" horiz-adv-x="1269" d="M160 0v1042h223v-100h49q95 127 301 127q189 0 290 -110t101 -308v-651h-231v606q0 256 -231 256q-119 0 -197 -90q-74 -89 -74 -215v-557h-231z" />
<glyph unicode="o" horiz-adv-x="1249" d="M98 522q0 242 142 393q145 154 385 154q241 0 383 -154q143 -149 143 -393q0 -245 -143 -397t-383 -152q-239 0 -385 152q-142 154 -142 397zM330 522q0 -154 78.5 -253t216.5 -99t216.5 99t78.5 253q0 153 -78.5 251.5t-216.5 98.5t-216.5 -98.5t-78.5 -251.5z" />
<glyph unicode="p" horiz-adv-x="1288" d="M160 -410v1452h223v-100h49q103 127 307 127q207 0 328 -154q123 -153 123 -393q0 -242 -123 -395q-121 -154 -328 -154q-204 0 -299 127h-49v-510h-231zM385 522q0 -155 75.5 -253.5t213.5 -98.5q134 0 209 95.5t75 256.5t-74.5 255.5t-209.5 94.5q-138 0 -213.5 -97.5 t-75.5 -252.5z" />
<glyph unicode="q" horiz-adv-x="1288" d="M98 522q0 239 121 393q124 154 330 154q204 0 307 -127h49v100h223v-1452h-231v510h-49q-95 -127 -299 -127q-206 0 -330 154q-121 154 -121 395zM330 522q0 -161 75 -256.5t209 -95.5q138 0 213.5 98.5t75.5 253.5t-75.5 252.5t-213.5 97.5q-135 0 -209.5 -94.5 t-74.5 -255.5z" />
<glyph unicode="r" horiz-adv-x="868" d="M160 0v1042h223v-120h49q88 120 291 120h88v-215h-94q-158 0 -242 -88t-84 -252v-487h-231z" />
<glyph unicode="s" horiz-adv-x="1087" d="M80 315h231q27 -149 242 -149q219 0 219 135q0 59 -39 90.5t-131 48.5l-217 37q-126 21 -196 90.5t-70 184.5q0 144 111.5 230.5t316.5 86.5q184 0 297.5 -82t130.5 -223h-232q-18 113 -204 113q-189 0 -189 -109q0 -46 31 -69t102 -35l203 -33q318 -53 318 -324 q0 -139 -119 -237q-120 -97 -328 -97q-217 0 -338 89.5t-139 252.5z" />
<glyph unicode="t" horiz-adv-x="808" d="M51 846v196h166v304h232v-304h245v-196h-245v-508q0 -137 159 -137h86v-201h-90q-195 0 -291 72t-96 235v539h-166z" />
<glyph unicode="u" horiz-adv-x="1269" d="M145 391v651h232v-606q0 -256 231 -256q120 0 195 90q76 88 76 215v557h231v-1042h-223v100h-49q-95 -127 -301 -127q-189 0 -290.5 110t-101.5 308z" />
<glyph unicode="v" horiz-adv-x="1144" d="M45 1042h236l247 -823h95l239 823h236l-324 -1042h-407z" />
<glyph unicode="w" horiz-adv-x="1480" d="M86 1042h221l107 -774h49l151 461h258l150 -463h49l105 776h219l-148 -1042h-315l-166 508h-49l-168 -508h-318z" />
<glyph unicode="x" horiz-adv-x="1183" d="M72 0l311 535l-281 507h244l211 -385h76l217 385h237l-282 -501l307 -541h-252l-229 410h-76l-236 -410h-247z" />
<glyph unicode="y" horiz-adv-x="1159" d="M37 1042h244l290 -628h54l264 628h237l-626 -1452h-236l215 512z" />
<glyph unicode="z" horiz-adv-x="1095" d="M100 0v246l578 551v49h-543v196h848v-243l-575 -553v-49h587v-197h-895z" />
<glyph unicode="{" horiz-adv-x="837" d="M127 541v184h39q74 0 105.5 47.5t31.5 147.5v284q0 163 97.5 256.5t263.5 93.5h98v-176h-70q-182 0 -182 -209v-288q0 -184 -125 -224v-49q125 -40 125 -223v-289q0 -209 182 -209h70v-176h-98q-166 0 -263.5 93.5t-97.5 256.5v285q0 100 -31.5 147.5t-105.5 47.5h-39z " />
<glyph unicode="|" horiz-adv-x="534" d="M170 -289v1843h195v-1843h-195z" />
<glyph unicode="}" horiz-adv-x="837" d="M76 -113h69q183 0 183 209v289q0 183 125 223v49q-125 40 -125 224v288q0 209 -183 209h-69v176h98q166 0 263.5 -93.5t97.5 -256.5v-284q0 -100 31.5 -147.5t105.5 -47.5h39v-184h-39q-74 0 -105.5 -47.5t-31.5 -147.5v-285q0 -163 -97.5 -256.5t-263.5 -93.5h-98v176z " />
<glyph unicode="~" horiz-adv-x="1374" d="M170 444q0 167 73 250.5t206 83.5q46 2 102 -19t106.5 -52t98.5 -62.5t93 -52t75 -17.5q112 0 112 154h168q0 -167 -73 -250.5t-207 -83.5q-61 0 -130.5 29.5t-127.5 71.5q-132 102 -217 102q-111 0 -111 -154h-168z" />
<glyph unicode="&#xa2;" horiz-adv-x="1163" d="M98 522q0 227 121 375q120 150 332 168v141h111v-139q165 -10 272 -103.5t131 -238.5h-229q-40 130 -174 145v-698q147 15 182 162h229q-23 -154 -133.5 -250.5t-277.5 -108.5v-139h-111v141q-211 18 -332 166q-121 151 -121 379zM330 524q0 -142 56 -236t165 -112v690 q-109 -17 -165 -109t-56 -233z" />
<glyph unicode="&#xa3;" horiz-adv-x="1312" d="M109 0v209h36q144 0 144 182v180h-180v191h180v244q0 212 118 334t330 122q203 0 321 -115t124 -313h-238q-6 215 -203 215q-215 0 -215 -243v-244h441v-191h-441v-155q0 -108 -53 -158v-49h768v-209h-1132z" />
<glyph unicode="&#xa5;" horiz-adv-x="1298" d="M49 1434h242l330 -670h57l330 670h243l-333 -670h190v-129h-254l-70 -137h324v-129h-340v-369h-238v369h-340v129h326l-70 137h-256v129h193z" />
<glyph unicode="&#xa8;" horiz-adv-x="757" d="M82 1266v223h207v-223h-207zM471 1266v223h205v-223h-205z" />
<glyph unicode="&#xa9;" horiz-adv-x="1748" d="M119 731q0 320 219 539t536 219q318 0 537 -219t219 -539q0 -322 -219 -541q-217 -217 -537 -217q-321 0 -538 217t-217 541zM248 731q0 -274 178 -455q179 -182 448 -182q270 0 449 182q180 183 180 455q0 275 -180 455q-179 182 -449 182q-269 0 -448 -182 q-178 -181 -178 -455zM518 729q0 182 100.5 294t274.5 112q134 0 222.5 -72.5t107.5 -192.5h-156q-27 127 -174 127q-108 0 -163.5 -71.5t-55.5 -196.5q0 -122 56 -193t163 -71q155 0 182 143h154q-19 -127 -109 -204.5t-227 -77.5q-177 0 -277 112q-98 113 -98 291z" />
<glyph unicode="&#xab;" horiz-adv-x="1251" d="M113 510v152l301 313h252l-342 -365v-47l342 -364h-252zM586 510v152l301 313h252l-342 -365v-47l342 -364h-252z" />
<glyph unicode="&#xad;" horiz-adv-x="786" d="M98 471v203h590v-203h-590z" />
<glyph unicode="&#xae;" horiz-adv-x="1748" d="M119 731q0 320 219 539t536 219q318 0 537 -219t219 -539q0 -322 -219 -541q-217 -217 -537 -217q-321 0 -538 217t-217 541zM248 731q0 -274 178 -455q179 -182 448 -182q270 0 449 182q180 183 180 455q0 275 -180 455q-179 182 -449 182q-269 0 -448 -182 q-178 -181 -178 -455zM584 340v780h362q129 0 198.5 -62t69.5 -175q0 -143 -114 -205l121 -338h-156l-109 305h-221v-305h-151zM735 776h189q137 0 137 105q0 104 -137 104h-189v-209z" />
<glyph unicode="&#xb4;" horiz-adv-x="598" d="M82 1192l182 297h252l-231 -297h-203z" />
<glyph unicode="&#xb8;" horiz-adv-x="573" d="M82 -299h129q15 -49 74 -49q34 0 53.5 23t19.5 50.5t-19.5 50.5t-53.5 23q-40 0 -64 -24h-117l107 274h98l-63 -168h26q25 19 74 19q64 0 106 -47t42 -121q0 -79 -56 -132t-157 -53q-88 0 -141 44t-58 110z" />
<glyph unicode="&#xbb;" horiz-adv-x="1251" d="M113 199l342 364v47l-342 365h252l301 -313v-152l-301 -311h-252zM586 199l342 364v47l-342 365h252l301 -313v-152l-301 -311h-252z" />
<glyph unicode="&#x2c6;" horiz-adv-x="817" d="M82 1192l223 297h209l221 -297h-186l-119 154h-49l-117 -154h-182z" />
<glyph unicode="&#x2da;" horiz-adv-x="628" d="M82 1405q0 97 68 162q70 67 165 67q97 0 164.5 -66.5t67.5 -162.5q0 -94 -68 -162q-68 -65 -164 -65q-94 0 -165 65q-68 68 -68 162zM205 1405q0 -45 31.5 -77t78.5 -32t79 32t32 77q0 47 -32 80t-79 33t-78.5 -32.5t-31.5 -80.5z" />
<glyph unicode="&#x2dc;" horiz-adv-x="839" d="M82 1200q0 135 51.5 207t149.5 72q68 0 159 -66q89 -65 127 -65q68 0 68 131h121q0 -279 -201 -279q-69 0 -160 66q-89 65 -125 65q-69 0 -69 -131h-121z" />
<glyph unicode="&#x401;" horiz-adv-x="1349" d="M178 0v1462h1051v-223h-805v-377h637v-219h-637v-420h831v-223h-1077zM399 1626v209h207v-209h-207zM788 1626v209h205v-209h-205z" />
<glyph unicode="&#x402;" horiz-adv-x="1665" d="M35 1245v217h1159v-217h-514v-399q162 33 342 33q282 0 412 -127q129 -126 129 -328q0 -222 -129 -336.5t-361 -114.5q-71 0 -108 9v223q24 -8 88 -8q264 0 264 225q0 116 -81 174.5t-261 58.5q-173 0 -295 -32v-623h-246v1245h-399z" />
<glyph unicode="&#x403;" horiz-adv-x="1292" d="M178 0v1462h1028v-223h-782v-1239h-246zM549 1550l182 297h252l-231 -297h-203z" />
<glyph unicode="&#x404;" horiz-adv-x="1486" d="M106 731q0 339 181 547q181 211 504 211q226 0 383 -115q156 -114 196 -303h-256q-71 197 -328 197q-180 0 -288 -111.5t-129 -300.5h610v-219h-612q12 -202 122.5 -322t301.5 -120q130 0 219 59t118 162h258q-34 -198 -194 -322q-160 -121 -399 -121q-323 0 -504 211 q-183 213 -183 547z" />
<glyph unicode="&#x405;" horiz-adv-x="1386" d="M94 428h250q40 -240 367 -240q141 0 227 60.5t86 163.5q0 93 -53.5 142t-167.5 75q-30 9 -156 30q-35 7 -68.5 13.5t-46.5 9t-14 2.5q-176 33 -270 130t-94 255q0 181 141 301q143 119 391 119q231 0 379.5 -111t173.5 -301h-250q-47 197 -307 197q-126 0 -203.5 -52.5 t-77.5 -146.5q0 -77 53 -117.5t160 -62.5l134 -27l141 -26q383 -82 383 -420q0 -191 -150 -320q-147 -129 -422 -129q-262 0 -424 125q-161 124 -182 330z" />
<glyph unicode="&#x406;" horiz-adv-x="622" d="M188 0v1462h246v-1462h-246z" />
<glyph unicode="&#x407;" horiz-adv-x="622" d="M14 1626v209h207v-209h-207zM188 0v1462h246v-1462h-246zM403 1626v209h205v-209h-205z" />
<glyph unicode="&#x408;" horiz-adv-x="1214" d="M68 453h245q18 -256 250 -256q110 0 171 72t61 210v983h245v-983q0 -238 -126.5 -372t-352.5 -134q-217 0 -350 127.5t-143 352.5z" />
<glyph unicode="&#x409;" horiz-adv-x="2318" d="M35 0v242h45q96 0 145 43q107 90 107 583v594h991v-528h369q248 0 386 -122.5t138 -342.5q0 -221 -138.5 -345t-385.5 -124h-615v1239h-516v-377q0 -269 -27.5 -437.5t-89.5 -260.5q-60 -91 -143.5 -127.5t-218.5 -36.5h-47zM1323 217h328q164 0 239.5 63t75.5 189 q0 125 -75 186.5t-240 61.5h-328v-500z" />
<glyph unicode="&#x40a;" horiz-adv-x="2375" d="M178 0v1462h246v-583h711v583h245v-528h369q248 0 386 -122.5t138 -342.5q0 -221 -138.5 -345t-385.5 -124h-614v653h-711v-653h-246zM1380 217h328q164 0 239.5 63t75.5 189q0 125 -75 186.5t-240 61.5h-328v-500z" />
<glyph unicode="&#x40b;" horiz-adv-x="1677" d="M35 1245v217h1159v-217h-514v-403q151 37 350 37q139 0 245 -27.5t165 -69.5q58 -44 82 -108q31 -73 34 -123q7 -61 7 -137v-414h-246v389q0 43 -2 55q0 23 -7 55.5t-18 49.5q-34 51 -103.5 78.5t-205.5 27.5q-156 0 -301 -37v-618h-246v1245h-399z" />
<glyph unicode="&#x40c;" horiz-adv-x="1460" d="M178 0v1462h246v-598h395l281 598h254l-328 -710l346 -752h-254l-299 641h-395v-641h-246zM612 1571l181 264h260l-232 -264h-209z" />
<glyph unicode="&#x40e;" horiz-adv-x="1355" d="M31 1462h262l373 -708h57l338 708h252l-701 -1462h-250l209 438zM315 1851h189q5 -68 54 -110.5t128 -42.5t129.5 42t56.5 111h187q-7 -147 -107.5 -231t-265.5 -84q-163 0 -263.5 84t-107.5 231z" />
<glyph unicode="&#x40f;" horiz-adv-x="1554" d="M178 0v1462h246v-1239h709v1239h245v-1462h-477v-358h-246v358h-477z" />
<glyph unicode="&#x410;" horiz-adv-x="1443" d="M39 0l485 1462h394l487 -1462h-252l-135 420h-600l-133 -420h-246zM487 639h459l-186 584h-88z" />
<glyph unicode="&#x411;" horiz-adv-x="1437" d="M178 0v1462h1036v-223h-790v-352h412q237 0 368 -116.5t131 -326.5t-131 -327t-368 -117h-658zM424 217h369q155 0 224.5 58t69.5 176t-69.5 174.5t-224.5 56.5h-369v-465z" />
<glyph unicode="&#x412;" horiz-adv-x="1460" d="M178 0v1462h662q227 0 350 -108q125 -107 125 -271q0 -209 -154 -292v-50q87 -39 142 -127.5t55 -195.5q0 -191 -130.5 -304.5t-369.5 -113.5h-680zM424 213h401q281 0 281 221q0 219 -281 219h-401v-440zM424 862h393q246 0 246 195q0 192 -246 192h-393v-387z" />
<glyph unicode="&#x413;" horiz-adv-x="1292" d="M178 0v1462h1028v-223h-782v-1239h-246z" />
<glyph unicode="&#x414;" horiz-adv-x="1595" d="M31 223h151q178 353 178 897v342h973v-1239h209v-581h-239v358h-1033v-358h-239v581zM434 223h658v1016h-502v-141q0 -552 -156 -875z" />
<glyph unicode="&#x415;" horiz-adv-x="1349" d="M178 0v1462h1051v-223h-805v-377h637v-219h-637v-420h831v-223h-1077z" />
<glyph unicode="&#x416;" horiz-adv-x="2154" d="M102 0l310 741l-291 721h254l241 -608h340v608h242v-608h340l242 608h254l-291 -721l309 -741h-254l-260 631h-340v-631h-242v631h-340l-260 -631h-254z" />
<glyph unicode="&#x417;" horiz-adv-x="1388" d="M88 424h258q58 -227 367 -227q143 0 230 62t87 167q0 221 -293 221h-225v219h225q123 0 182.5 53.5t59.5 145.5q0 95 -75.5 148t-201.5 53q-262 0 -303 -197h-254q23 196 172.5 308t387.5 112q250 0 387 -113q139 -112 139 -280q0 -209 -152 -293v-49q207 -80 207 -336 q0 -192 -153 -318q-154 -127 -422 -127q-275 0 -433.5 117t-189.5 334z" />
<glyph unicode="&#x418;" horiz-adv-x="1589" d="M178 0v1462h234v-1138h49l604 1138h348v-1462h-233v1139h-50l-604 -1139h-348z" />
<glyph unicode="&#x419;" horiz-adv-x="1589" d="M178 0v1462h234v-1138h49l604 1138h348v-1462h-233v1139h-50l-604 -1139h-348zM424 1851h188q5 -68 54.5 -110.5t128.5 -42.5t129.5 42t56.5 111h186q-7 -147 -107 -231t-265 -84q-163 0 -263.5 84t-107.5 231z" />
<glyph unicode="&#x41a;" horiz-adv-x="1431" d="M178 0v1462h246v-598h395l281 598h254l-328 -710l346 -752h-254l-299 641h-395v-641h-246z" />
<glyph unicode="&#x41b;" horiz-adv-x="1521" d="M35 0v242h45q96 0 145 43q107 90 107 606v571h1014v-1462h-246v1239h-539v-377q0 -269 -27.5 -437.5t-89.5 -260.5q-60 -91 -143.5 -127.5t-218.5 -36.5h-47z" />
<glyph unicode="&#x41c;" horiz-adv-x="1785" d="M178 0v1462h389l303 -637h50l299 637h391v-1462h-234v1169h-49l-309 -641h-250l-307 641h-49v-1169h-234z" />
<glyph unicode="&#x41d;" horiz-adv-x="1576" d="M178 0v1462h246v-594h731v594h246v-1462h-246v639h-731v-639h-246z" />
<glyph unicode="&#x41e;" horiz-adv-x="1607" d="M106 731q0 333 185 545q186 213 514 213q329 0 512 -213q184 -211 184 -545t-184 -545q-183 -213 -512 -213q-328 0 -514 213q-185 212 -185 545zM356 731q0 -234 113 -383q115 -151 336 -151q219 0 334 151q112 147 112 383t-112 383q-116 152 -334 152 q-220 0 -336 -152q-113 -149 -113 -383z" />
<glyph unicode="&#x41f;" horiz-adv-x="1560" d="M178 0v1462h1206v-1462h-245v1239h-715v-1239h-246z" />
<glyph unicode="&#x420;" horiz-adv-x="1435" d="M178 0v1462h643q243 0 377.5 -119t134.5 -331q0 -216 -134 -336.5t-378 -120.5h-397v-555h-246zM424 772h360q299 0 299 238q0 119 -71 177t-228 58h-360v-473z" />
<glyph unicode="&#x421;" horiz-adv-x="1490" d="M106 731q0 337 183 547q184 211 508 211q231 0 383 -119q154 -118 194 -313h-258q-68 209 -319 209q-212 0 -328 -152q-113 -149 -113 -383q0 -235 111 -385q113 -149 328 -149q133 0 221 64t117 181h258q-39 -216 -196.5 -342.5t-399.5 -126.5q-324 0 -506 209 q-183 213 -183 549z" />
<glyph unicode="&#x422;" horiz-adv-x="1251" d="M35 1245v217h1182v-217h-467v-1245h-246v1245h-469z" />
<glyph unicode="&#x423;" horiz-adv-x="1355" d="M31 1462h262l373 -708h57l338 708h252l-701 -1462h-250l209 438z" />
<glyph unicode="&#x424;" horiz-adv-x="1792" d="M88 752q0 287 180 436q183 151 488 151h20v170h238v-170h22q303 0 486 -151q180 -149 180 -436q0 -285 -177 -436.5t-489 -151.5h-22v-191h-238v191h-20q-316 0 -492 151t-176 437zM334 752q0 -184 110.5 -279.5t311.5 -95.5h20v749h-20q-204 0 -313 -94t-109 -280z M1014 377h22q201 0 311.5 95.5t110.5 279.5q0 186 -110 280t-312 94h-22v-749z" />
<glyph unicode="&#x425;" horiz-adv-x="1374" d="M41 0l420 770l-361 692h258l295 -559h70l301 559h256l-367 -684l420 -778h-276l-336 633h-70l-344 -633h-266z" />
<glyph unicode="&#x426;" horiz-adv-x="1640" d="M178 0v1462h246v-1239h706v1239h246v-1239h211v-581h-241v358h-1168z" />
<glyph unicode="&#x427;" horiz-adv-x="1417" d="M113 1020v442h245v-418v-57q5 -68 27 -102q35 -51 104 -79t205 -28q156 0 301 37v647h246v-1462h-246v592q-151 -37 -350 -37q-139 0 -244.5 27t-164.5 69q-56 43 -84 109q-30 79 -35 121q-4 70 -4 139z" />
<glyph unicode="&#x428;" horiz-adv-x="2109" d="M178 0v1462h240v-1239h518v1239h240v-1239h518v1239h239v-1462h-1755z" />
<glyph unicode="&#x429;" horiz-adv-x="2195" d="M178 0v1462h240v-1239h518v1239h240v-1239h518v1239h239v-1239h209v-581h-239v358h-1725z" />
<glyph unicode="&#x42a;" horiz-adv-x="1642" d="M10 1239v223h619v-528h387q250 0 387 -122.5t137 -342.5q0 -222 -137 -345.5t-387 -123.5h-633v1239h-373zM629 217h346q164 0 239.5 63t75.5 189q0 125 -75 186.5t-240 61.5h-346v-500z" />
<glyph unicode="&#x42b;" horiz-adv-x="1900" d="M178 0v1462h246v-528h348q250 0 388 -122.5t138 -342.5q0 -222 -138 -345.5t-388 -123.5h-594zM424 217h309q164 0 240 63t76 189q0 125 -75.5 186.5t-240.5 61.5h-309v-500zM1477 0v1462h247v-1462h-247z" />
<glyph unicode="&#x42c;" horiz-adv-x="1437" d="M178 0v1462h246v-528h387q248 0 386 -122.5t138 -342.5q0 -221 -138.5 -345t-385.5 -124h-633zM424 217h346q164 0 239.5 63t75.5 189q0 125 -75 186.5t-240 61.5h-346v-500z" />
<glyph unicode="&#x42d;" horiz-adv-x="1474" d="M88 416h258q29 -103 118.5 -162t219.5 -59q191 0 301.5 120t122.5 322h-612v219h610q-21 189 -129.5 300.5t-288.5 111.5q-257 0 -328 -197h-256q40 188 197 303t383 115q321 0 502 -211q182 -209 182 -547q0 -335 -182 -547q-181 -211 -504 -211q-239 0 -399 121 q-161 124 -195 322z" />
<glyph unicode="&#x42e;" horiz-adv-x="2168" d="M178 0v1462h246v-594h281q35 280 210 449q175 172 463 172q321 0 504 -213q180 -210 180 -545t-180 -545q-183 -213 -504 -213q-298 0 -477 185q-176 185 -203 481h-274v-639h-246zM944 731q0 -233 111 -383q112 -151 323 -151q210 0 322 151q110 149 110 383t-110 383 q-112 152 -322 152q-211 0 -323 -152q-111 -150 -111 -383z" />
<glyph unicode="&#x42f;" horiz-adv-x="1466" d="M119 0l225 639q-219 109 -219 383q0 207 131.5 323.5t366.5 116.5h667v-1462h-246v582h-339q-72 0 -130 4l-206 -586h-250zM375 1020q0 -225 282 -225h387v450h-387q-147 0 -214.5 -55.5t-67.5 -169.5z" />
<glyph unicode="&#x430;" horiz-adv-x="1171" d="M82 315q0 141 102 246t312 105h307v30q0 92 -55 141.5t-164 49.5q-194 0 -209 -133h-230q7 145 125 230t305 85q215 0 333 -95.5t118 -281.5v-692h-215v96h-49q-94 -123 -307 -123q-171 0 -273 99q-100 100 -100 243zM315 330q0 -79 55.5 -123.5t155.5 -44.5 q118 0 197 76q80 77 80 184v80h-266q-108 0 -165 -45t-57 -127z" />
<glyph unicode="&#x431;" horiz-adv-x="1257" d="M98 610q0 148 16 260.5t56 221.5q89 234 340 274l272 45q63 11 82.5 24.5t20.5 53.5h198q-5 -113 -50.5 -176t-158.5 -82l-331 -53q-115 -18 -173.5 -90.5t-82.5 -210.5h49q110 143 330 143q225 0 358 -148q135 -147 135 -376q0 -227 -145 -375t-383 -148 q-253 0 -393 165.5t-140 471.5zM332 502q0 -142 76 -236q78 -96 221 -96q141 0 219 96q76 94 76 236q0 144 -78 235.5t-217 91.5q-142 0 -219.5 -91t-77.5 -236z" />
<glyph unicode="&#x432;" horiz-adv-x="1202" d="M160 0v1042h557q157 0 243.5 -70t86.5 -194q0 -67 -33 -122t-84 -81v-47q80 -21 127 -83.5t47 -157.5q0 -140 -95 -213.5t-274 -73.5h-575zM387 176h305q178 0 178 137q0 140 -178 140h-305v-277zM387 621h281q73 0 110 33t37 89q0 123 -147 123h-281v-245z" />
<glyph unicode="&#x433;" horiz-adv-x="1034" d="M160 0v1042h813v-196h-582v-846h-231z" />
<glyph unicode="&#x434;" horiz-adv-x="1368" d="M37 197h147q109 257 109 553v292h833v-845h189v-490h-221v293h-836v-293h-221v490zM410 197h485v649h-391v-98q0 -312 -94 -551z" />
<glyph unicode="&#x435;" horiz-adv-x="1193" d="M98 528q0 250 138 394q138 147 376 147q226 0 353 -139q130 -139 133 -350v-78h-770q9 -332 293 -332q180 0 227 133h235q-31 -153 -152 -241.5t-313 -88.5q-241 0 -380 154q-140 155 -140 401zM338 674h522q-12 95 -78 153t-172 58q-113 0 -182 -56t-90 -155z" />
<glyph unicode="&#x436;" horiz-adv-x="1697" d="M76 0l241 537l-227 505h236l184 -411h231v411h217v-411h232l182 411h236l-226 -505l242 -537h-240l-194 434h-232v-434h-217v434h-231l-197 -434h-237z" />
<glyph unicode="&#x437;" horiz-adv-x="1126" d="M78 311h217q41 -141 266 -141q227 0 227 137q0 129 -196 129h-178v189h168q176 0 176 123q0 60 -54 92t-149 32q-196 0 -223 -133h-215q13 156 134 243t316 87q192 0 306 -82.5t114 -212.5q0 -162 -106 -205v-49q139 -41 139 -225q0 -141 -123 -232q-122 -90 -328 -90 q-220 0 -345 88t-146 250z" />
<glyph unicode="&#x438;" horiz-adv-x="1290" d="M160 0v1042h225v-688h49l428 688h268v-1042h-225v688h-49l-434 -688h-262z" />
<glyph unicode="&#x439;" horiz-adv-x="1290" d="M160 0v1042h225v-688h49l428 688h268v-1042h-225v688h-49l-434 -688h-262zM297 1477h182q9 -148 164 -148t164 148h182q-8 -143 -98 -223t-248 -80t-248 80t-98 223z" />
<glyph unicode="&#x43a;" horiz-adv-x="1200" d="M160 0v1042h231v-409h273l208 409h238l-256 -501l270 -541h-243l-222 436h-268v-436h-231z" />
<glyph unicode="&#x43b;" horiz-adv-x="1286" d="M47 0v219h37q108 0 153.5 89t45.5 313v421h843v-1042h-231v846h-399v-232q0 -339 -99 -477q-94 -137 -313 -137h-37z" />
<glyph unicode="&#x43c;" horiz-adv-x="1490" d="M160 0v1042h329l234 -456h49l232 456h327v-1042h-225v750h-49l-203 -392h-217l-203 392h-49v-750h-225z" />
<glyph unicode="&#x43d;" horiz-adv-x="1286" d="M160 0v1042h231v-409h504v409h231v-1042h-231v436h-504v-436h-231z" />
<glyph unicode="&#x43e;" horiz-adv-x="1249" d="M98 522q0 242 142 393q145 154 385 154q241 0 383 -154q143 -149 143 -393q0 -245 -143 -397t-383 -152q-239 0 -385 152q-142 154 -142 397zM330 522q0 -154 78.5 -253t216.5 -99t216.5 99t78.5 253q0 153 -78.5 251.5t-216.5 98.5t-216.5 -98.5t-78.5 -251.5z" />
<glyph unicode="&#x43f;" horiz-adv-x="1277" d="M160 0v1042h958v-1042h-231v846h-496v-846h-231z" />
<glyph unicode="&#x440;" horiz-adv-x="1288" d="M160 -410v1452h223v-100h49q103 127 307 127q207 0 328 -154q123 -153 123 -393q0 -242 -123 -395q-121 -154 -328 -154q-204 0 -299 127h-49v-510h-231zM385 522q0 -155 75.5 -253.5t213.5 -98.5q134 0 209 95.5t75 256.5t-74.5 255.5t-209.5 94.5q-138 0 -213.5 -97.5 t-75.5 -252.5z" />
<glyph unicode="&#x441;" horiz-adv-x="1163" d="M98 522q0 246 138 396q139 151 378 151q185 0 306.5 -94t144.5 -250h-229q-47 147 -220 147q-141 0 -213.5 -94.5t-72.5 -253.5q0 -162 72.5 -258t213.5 -96q190 0 228 164h229q-25 -165 -149 -263t-310 -98q-238 0 -378 152q-138 150 -138 397z" />
<glyph unicode="&#x442;" horiz-adv-x="1056" d="M61 846v196h934v-196h-350v-846h-231v846h-353z" />
<glyph unicode="&#x443;" horiz-adv-x="1159" d="M37 1042h244l290 -628h54l264 628h237l-626 -1452h-236l215 512z" />
<glyph unicode="&#x444;" horiz-adv-x="1533" d="M98 522q0 229 138 373t387 147h30v447h228v-447h30q247 -3 385 -147q140 -146 140 -373q0 -241 -146.5 -381.5t-408.5 -140.5v-410h-228v410h-24q-252 3 -391 145q-140 146 -140 377zM326 522q0 -151 78.5 -243t222.5 -93h26v670h-24q-144 -1 -223.5 -94t-79.5 -240z M881 186h22q145 1 225 93.5t80 242.5q0 147 -80.5 240t-224.5 94h-22v-670z" />
<glyph unicode="&#x445;" horiz-adv-x="1183" d="M72 0l311 535l-281 507h244l211 -385h76l217 385h237l-282 -501l307 -541h-252l-229 410h-76l-236 -410h-247z" />
<glyph unicode="&#x446;" horiz-adv-x="1349" d="M160 0v1042h231v-845h488v845h231v-845h186v-490h-219v293h-917z" />
<glyph unicode="&#x447;" horiz-adv-x="1181" d="M100 711v331h232v-301q0 -45 5.5 -69.5t24.5 -53.5q39 -57 199 -57q105 0 227 25v456h234v-1042h-234v393q-137 -28 -292 -28q-202 0 -297 71q-59 51 -79 116.5t-20 158.5z" />
<glyph unicode="&#x448;" horiz-adv-x="1710" d="M160 0v1042h225v-845h358v845h224v-845h358v845h225v-1042h-1390z" />
<glyph unicode="&#x449;" horiz-adv-x="1792" d="M160 0v1042h225v-845h358v845h224v-845h358v845h225v-845h189v-490h-221v293h-1358z" />
<glyph unicode="&#x44a;" horiz-adv-x="1339" d="M37 846v196h536v-323h281q194 0 301 -93t107 -261q0 -171 -107 -268t-301 -97h-512v846h-305zM573 197h248q110 0 158.5 42t48.5 126q0 86 -48 126.5t-159 40.5h-248v-335z" />
<glyph unicode="&#x44b;" horiz-adv-x="1609" d="M160 0v1042h231v-323h260q194 0 300 -93t106 -261q0 -171 -106 -268t-300 -97h-491zM391 197h227q110 0 158.5 42t48.5 126q0 86 -48 126.5t-159 40.5h-227v-335zM1219 0v1042h231v-1042h-231z" />
<glyph unicode="&#x44c;" horiz-adv-x="1155" d="M160 0v1042h231v-323h281q194 0 299.5 -93t105.5 -261q0 -172 -105.5 -268.5t-299.5 -96.5h-512zM391 197h248q110 0 158.5 42t48.5 126q0 86 -48 126.5t-159 40.5h-248v-335z" />
<glyph unicode="&#x44d;" horiz-adv-x="1177" d="M96 317h221q35 -147 246 -147q123 0 196.5 70.5t84.5 193.5h-416v189h414q-12 115 -85 182t-194 67q-194 0 -235 -133h-219q30 151 151.5 240.5t304.5 89.5q236 0 375 -151t139 -396q0 -248 -139 -399q-138 -150 -377 -150q-186 0 -313 95t-154 249z" />
<glyph unicode="&#x44e;" horiz-adv-x="1730" d="M160 0v1042h227v-407h219q30 192 166 313t340 121q236 0 377 -156q143 -152 143 -391q0 -240 -143 -395q-142 -154 -377 -154q-211 0 -350 127q-138 129 -162 338h-213v-438h-227zM821 522q0 -157 76 -254.5t215 -97.5q137 0 213 98.5t76 253.5q0 153 -76 251.5 t-213 98.5t-214 -98.5t-77 -251.5z" />
<glyph unicode="&#x44f;" horiz-adv-x="1202" d="M115 0l168 430q-158 84 -158 279q0 156 103.5 244.5t291.5 88.5h524v-1042h-231v379h-246q-57 0 -73 2l-146 -381h-233zM354 707q0 -148 185 -148h274v295h-274q-185 0 -185 -147z" />
<glyph unicode="&#x451;" horiz-adv-x="1193" d="M98 528q0 250 138 394q138 147 376 147q226 0 353 -139q130 -139 133 -350v-78h-770q9 -332 293 -332q180 0 227 133h235q-31 -153 -152 -241.5t-313 -88.5q-241 0 -380 154q-140 155 -140 401zM315 1249v224h207v-224h-207zM338 674h522q-12 95 -78 153t-172 58 q-113 0 -182 -56t-90 -155zM705 1249v224h204v-224h-204z" />
<glyph unicode="&#x452;" horiz-adv-x="1290" d="M53 1169v150h158v170h231v-170h392v-150h-392v-307h50q95 127 296 127q187 0 287.5 -110t100.5 -308v-614q0 -180 -97.5 -273.5t-271.5 -93.5h-131v197h94q174 0 174 184v555q0 256 -231 256q-119 0 -197 -90q-74 -89 -74 -215v-477h-231v1169h-158z" />
<glyph unicode="&#x453;" horiz-adv-x="1034" d="M160 0v1042h813v-196h-582v-846h-231zM410 1192l182 297h252l-232 -297h-202z" />
<glyph unicode="&#x454;" horiz-adv-x="1171" d="M98 522q0 244 140 396q139 151 374 151q183 0 305 -89.5t152 -240.5h-219q-41 133 -236 133q-121 0 -193.5 -67t-84.5 -182h414v-189h-416q11 -123 84 -193.5t196 -70.5q212 0 246 147h221q-27 -153 -155 -249q-127 -95 -312 -95q-238 0 -376 150q-140 152 -140 399z" />
<glyph unicode="&#x455;" horiz-adv-x="1087" d="M80 315h231q27 -149 242 -149q219 0 219 135q0 59 -39 90.5t-131 48.5l-217 37q-126 21 -196 90.5t-70 184.5q0 144 111.5 230.5t316.5 86.5q184 0 297.5 -82t130.5 -223h-232q-18 113 -204 113q-189 0 -189 -109q0 -46 31 -69t102 -35l203 -33q318 -53 318 -324 q0 -139 -119 -237q-120 -97 -328 -97q-217 0 -338 89.5t-139 252.5z" />
<glyph unicode="&#x456;" horiz-adv-x="557" d="M160 1266v223h237v-223h-237zM162 0v1042h231v-1042h-231z" />
<glyph unicode="&#x457;" horiz-adv-x="557" d="M-18 1266v223h206v-223h-206zM162 0v1042h231v-1042h-231zM371 1266v223h204v-223h-204z" />
<glyph unicode="&#x458;" horiz-adv-x="579" d="M-82 -213h94q174 0 174 184v1071h232v-1085q0 -180 -97.5 -273.5t-271.5 -93.5h-131v197zM182 1266v223h238v-223h-238z" />
<glyph unicode="&#x459;" horiz-adv-x="1857" d="M47 0v219h37q108 0 153.5 89t45.5 313v421h825v-323h266q194 0 300 -93t106 -261q0 -171 -106 -268t-300 -97h-497v846h-381v-232q0 -339 -99 -477q-94 -137 -313 -137h-37zM1108 197h233q110 0 158.5 42t48.5 126q0 86 -48 126.5t-159 40.5h-233v-335z" />
<glyph unicode="&#x45a;" horiz-adv-x="1841" d="M160 0v1042h231v-409h469v409h232v-323h266q194 0 299.5 -93t105.5 -261q0 -172 -105.5 -268.5t-299.5 -96.5h-498v436h-469v-436h-231zM1092 197h233q110 0 158.5 42t48.5 126q0 86 -48 126.5t-159 40.5h-233v-335z" />
<glyph unicode="&#x45b;" horiz-adv-x="1318" d="M51 1169v150h158v170h231v-170h391v-150h-391v-307h49q95 127 297 127q187 0 287.5 -110t100.5 -308v-571h-232v526q0 256 -231 256q-119 0 -197 -90q-74 -89 -74 -215v-477h-231v1169h-158z" />
<glyph unicode="&#x45c;" horiz-adv-x="1185" d="M160 0v1042h231v-409h273l208 409h238l-256 -501l270 -541h-243l-222 436h-268v-436h-231zM481 1192l183 297h251l-231 -297h-203z" />
<glyph unicode="&#x45e;" horiz-adv-x="1159" d="M37 1042h244l290 -628h54l264 628h237l-626 -1452h-236l215 512zM231 1477h183q9 -148 164 -148q154 0 163 148h183q-8 -143 -98 -223t-248 -80t-248.5 80t-98.5 223z" />
<glyph unicode="&#x45f;" horiz-adv-x="1269" d="M160 0v1042h231v-845h488v845h231v-1042h-365v-293h-221v293h-364z" />
<glyph unicode="&#x490;" horiz-adv-x="1292" d="M178 0v1462h778v307h250v-530h-782v-1239h-246z" />
<glyph unicode="&#x491;" horiz-adv-x="1011" d="M160 0v1042h571v263h219v-459h-559v-846h-231z" />
<glyph unicode="&#x492;" horiz-adv-x="1355" d="M51 629v192h193v641h1026v-223h-781v-418h461v-192h-461v-629h-245v629h-193z" />
<glyph unicode="&#x493;" horiz-adv-x="1073" d="M43 377v174h166v491h803v-196h-572v-295h369v-174h-369v-377h-231v377h-166z" />
<glyph unicode="&#x49a;" horiz-adv-x="1529" d="M178 0v1462h246v-598h395l281 598h254l-328 -710l244 -529h207v-581h-240v358h-119l-299 641h-395v-641h-246z" />
<glyph unicode="&#x49b;" horiz-adv-x="1261" d="M160 0v1042h231v-409h273l208 409h238l-256 -501l174 -344h180v-490h-221v293h-104l-224 436h-268v-436h-231z" />
<glyph unicode="&#x4a2;" horiz-adv-x="1662" d="M178 0v1462h246v-594h731v594h246v-1239h209v-581h-240v358h-215v639h-731v-639h-246z" />
<glyph unicode="&#x4a3;" horiz-adv-x="1366" d="M160 0v1042h231v-409h504v409h231v-845h187v-490h-219v293h-199v436h-504v-436h-231z" />
<glyph unicode="&#x4ae;" horiz-adv-x="1353" d="M33 1462h264l350 -624h58l350 624h264l-520 -923v-539h-246v539z" />
<glyph unicode="&#x4af;" horiz-adv-x="1148" d="M45 1042h236l247 -923h95l239 923h236l-322 -1142h-90v-308h-231v308h-93z" />
<glyph unicode="&#x4b0;" horiz-adv-x="1353" d="M33 1462h264l350 -624h58l350 624h264l-445 -788h300v-193h-375v-481h-246v481h-373v193h297z" />
<glyph unicode="&#x4b1;" horiz-adv-x="1157" d="M45 1042h236l247 -923h95l239 923h236l-293 -1042h192v-168h-311v-240h-231v240h-310v168h189z" />
<glyph unicode="&#x4ba;" horiz-adv-x="1419" d="M178 0v1462h246v-592q151 37 350 37q139 0 245 -27t165 -69q57 -44 82 -109q31 -73 34 -122q7 -61 7 -138v-442h-246v418q0 43 -2 55q0 23 -7 55.5t-18 49.5q-34 51 -103.5 78.5t-205.5 27.5q-156 0 -301 -37v-647h-246z" />
<glyph unicode="&#x4bb;" horiz-adv-x="1269" d="M160 0v1489h231v-547h49q95 127 297 127q187 0 287 -110t100 -308v-651h-231v606q0 256 -231 256q-119 0 -197 -90q-74 -89 -74 -215v-557h-231z" />
<glyph unicode="&#x4d8;" horiz-adv-x="1566" d="M106 768q0 6 5 88h1089q-21 189 -133.5 300.5t-300.5 111.5q-269 0 -334 -197h-256q41 193 198.5 305.5t389.5 112.5q329 0 512 -213q184 -211 184 -545q0 -335 -180 -545q-183 -213 -506 -213q-316 0 -493 213q-175 214 -175 582zM356 637q6 -194 111 -320 q104 -122 301 -122t309.5 120t124.5 322h-846z" />
<glyph unicode="&#x4d9;" horiz-adv-x="1193" d="M98 518q0 58 2 72h764q-13 136 -88.5 209t-200.5 73q-184 0 -231 -133h-229q27 151 149.5 240.5t310.5 89.5q241 0 379 -156q142 -157 142 -399q0 -241 -140 -393q-139 -148 -372 -148q-228 0 -357 144t-129 401zM326 418q2 -123 70 -191.5t190 -68.5q126 0 198.5 67 t79.5 193h-538z" />
<glyph unicode="&#x4e8;" horiz-adv-x="1607" d="M106 731q0 333 185 545q186 213 514 213q329 0 512 -213q184 -211 184 -545t-184 -545q-183 -213 -512 -213q-328 0 -514 213q-185 212 -185 545zM360 637q19 -202 134 -321t311 -119t308.5 118t133.5 322h-887zM365 856h878q-30 194 -140.5 302t-297.5 108 q-190 0 -300 -107.5t-140 -302.5z" />
<glyph unicode="&#x4e9;" horiz-adv-x="1249" d="M98 522q0 242 142 393q145 154 385 154q241 0 383 -154q143 -149 143 -393q0 -245 -143 -397t-383 -152q-239 0 -385 152q-142 154 -142 397zM336 438q14 -123 90 -195.5t199 -72.5t198.5 72.5t89.5 195.5h-577zM336 610h575q-14 118 -90.5 190t-195.5 72 q-120 0 -195.5 -71t-93.5 -191z" />
<glyph unicode="&#x2000;" horiz-adv-x="925" />
<glyph unicode="&#x2001;" horiz-adv-x="1851" />
<glyph unicode="&#x2002;" horiz-adv-x="925" />
<glyph unicode="&#x2003;" horiz-adv-x="1851" />
<glyph unicode="&#x2004;" horiz-adv-x="617" />
<glyph unicode="&#x2005;" horiz-adv-x="462" />
<glyph unicode="&#x2006;" horiz-adv-x="308" />
<glyph unicode="&#x2007;" horiz-adv-x="308" />
<glyph unicode="&#x2008;" horiz-adv-x="231" />
<glyph unicode="&#x2009;" horiz-adv-x="370" />
<glyph unicode="&#x200a;" horiz-adv-x="102" />
<glyph unicode="&#x2010;" horiz-adv-x="786" d="M98 471v203h590v-203h-590z" />
<glyph unicode="&#x2011;" horiz-adv-x="786" d="M98 471v203h590v-203h-590z" />
<glyph unicode="&#x2012;" horiz-adv-x="786" d="M98 471v203h590v-203h-590z" />
<glyph unicode="&#x2013;" horiz-adv-x="1267" d="M94 479v187h1077v-187h-1077z" />
<glyph unicode="&#x2014;" horiz-adv-x="1798" d="M94 479v187h1608v-187h-1608z" />
<glyph unicode="&#x2018;" d="M152 924v319l135 219h143l-135 -219v-45h121v-274h-264z" />
<glyph unicode="&#x2019;" d="M135 924l135 219v45h-120v274h264v-319l-135 -219h-144z" />
<glyph unicode="&#x201a;" d="M135 -264l135 219v45h-120v274h264v-319l-135 -219h-144z" />
<glyph unicode="&#x201c;" horiz-adv-x="972" d="M152 924v319l135 219h143l-135 -219v-45h121v-274h-264zM559 924v319l135 219h144l-136 -219v-45h121v-274h-264z" />
<glyph unicode="&#x201d;" horiz-adv-x="972" d="M135 924l135 219v45h-120v274h264v-319l-135 -219h-144zM543 924l135 219v45h-121v274h264v-319l-135 -219h-143z" />
<glyph unicode="&#x201e;" horiz-adv-x="972" d="M135 -264l135 219v45h-120v274h264v-319l-135 -219h-144zM543 -264l135 219v45h-121v274h264v-319l-135 -219h-143z" />
<glyph unicode="&#x2022;" horiz-adv-x="864" d="M131 729q0 125 88 213t213 88t213 -88t88 -213t-88 -213t-213 -88t-213 88t-88 213z" />
<glyph unicode="&#x2026;" horiz-adv-x="1658" d="M150 0v274h264v-274h-264zM696 0v274h265v-274h-265zM1243 0v274h264v-274h-264z" />
<glyph unicode="&#x202f;" horiz-adv-x="370" />
<glyph unicode="&#x2039;" horiz-adv-x="778" d="M113 510v152l301 313h252l-342 -365v-47l342 -364h-252z" />
<glyph unicode="&#x203a;" horiz-adv-x="778" d="M113 199l342 364v47l-342 365h252l301 -313v-152l-301 -311h-252z" />
<glyph unicode="&#x205f;" horiz-adv-x="462" />
<glyph unicode="&#x20ac;" horiz-adv-x="1409" d="M59 524l43 129h119q-6 67 0 138h-162l43 129h134q41 257 190 399.5t371 142.5q203 0 336.5 -114.5t164.5 -313.5h-237q-41 215 -264 215q-131 0 -214.5 -84.5t-109.5 -244.5h475l-43 -129h-446q-4 -93 -2 -138h399l-43 -129h-342q47 -338 328 -338q117 0 188 63.5 t88 182.5h234q-29 -215 -164 -337t-348 -122q-229 0 -377.5 143.5t-186.5 407.5h-174z" />
<glyph unicode="&#x2122;" horiz-adv-x="1753" d="M47 1325v137h655v-137h-251v-639h-152v639h-252zM834 686v776h237l148 -329h28l144 329h237v-776h-143v602h-29l-149 -334h-150l-151 334h-27v-602h-145z" />
<glyph unicode="&#x25fc;" horiz-adv-x="1044" d="M0 0v1044h1044v-1044h-1044z" />
</font>
</defs>
</svg>
