<svg xmlns="http://www.w3.org/2000/svg" viewBox="0 0 46.4 29.4"><path fill="#7dc0f5" d="M.7 23.7v-1.1c.7-.7 1.4-1.4 2-2.1.6-.6 1.1-1.2 1.5-1.8s.7-1.1 1-1.5c.2-.5.3-.9.3-1.3 0-.6-.2-1-.5-1.3s-.7-.4-1.3-.4c-.4 0-.8.2-1.1.4-.3.3-.7.6-1 .9-.4-.3-.7-.7-1.1-1.1.5-.5 1-1 1.5-1.3s1.2-.5 1.9-.6c.5 0 1 0 1.4.1s.8.3 1.1.5.5.6.7.9c.2.4.2.8.2 1.3s-.1 1-.3 1.5-.5 1.1-.8 1.6c-.4.5-.8 1.1-1.2 1.7l-1.5 1.8c.3 0 .6-.1.9-.2.3-.1.6-.1.9-.1.9-.1 1.8-.2 2.6-.3V23c-2.4.4-4.8.6-7.2.7zm12.1-1.4c-.9.2-1.6.2-2.2 0-.6-.2-1.1-.4-1.5-.8.3-.5.6-.9.9-1.4.3.2.7.4 1.1.6.4.2.9.2 1.4.1.6-.1 1.1-.4 1.5-.9.4-.4.6-1 .6-1.7 0-.6-.2-1.1-.5-1.4-.4-.3-.8-.3-1.4-.2l-.9.3c-.2.1-.5.4-.8.6-.3-.1-.6-.3-.9-.4l.3-5.4c1.9-.4 3.8-.8 5.7-1.3V12c-1.3.3-2.7.6-4 .9-.1.9-.1 1.8-.2 2.6.2-.2.4-.3.7-.4.2-.1.5-.2.8-.3.5-.1.9-.1 1.3-.1s.8.2 1.1.4c.3.2.5.5.7.9.2.4.3.9.3 1.4 0 .6-.1 1.1-.3 1.6-.2.5-.5 1-.8 1.4s-.7.7-1.2 1c-.8.6-1.2.8-1.7.9zm8.9-2.2c-.3.1-.6.1-.9.1l.3-1.8h.4c.3-.1.5-.2.6-.5.2-.3.3-.7.4-1.2l.3-2.7c.1-.9.2-1.8.3-2.6 1.9-.5 3.7-1 5.6-1.5v8.3c-.6.2-1.3.3-1.9.5V12l-2.1.6-.3 2.1-.3 2.1c-.1 1-.4 1.7-.8 2.3-.3.4-.8.8-1.6 1zm13.1-3.3c-.6.1-1.1.1-1.6 0s-.9-.3-1.3-.6-.7-.7-.9-1.2-.3-1.1-.3-1.8.1-1.3.3-1.9.5-1.1.9-1.6.8-.8 1.2-1.1c.5-.3.9-.5 1.4-.6.6-.1 1.1-.1 1.5 0s.8.3 1.1.6c.3.3.5.7.6 1.1.1.5.2 1 .2 1.5v.5c0 .2 0 .3-.1.4-1.8.3-3.5.6-5.3 1 .1.7.4 1.2.8 1.5.4.3 1 .4 1.7.2.4-.1.7-.2 1-.4l.9-.6c.2.4.4.7.7 1.1-.4.3-.8.6-1.3.9-.4.7-1 .9-1.5 1zm-2.2-4.6c1.2-.3 2.5-.5 3.7-.8 0-.6-.1-1.1-.4-1.4-.3-.3-.7-.4-1.3-.3-.5.1-.9.4-1.3.8s-.6 1-.7 1.7zm8.9 3.4V8.9c-.9.1-1.7.2-2.6.3V7.7c2.4-.4 4.8-.6 7.2-.6v1.5c-.9 0-1.7 0-2.6.1v6.7c-.7 0-1.4.1-2 .2zM5.9 8c-2 .2-3.9.4-5.9.4v1.1c2 0 3.9-.1 5.9-.4V8zm40.5-8c-13 0-25.9 5.9-38.9 7.8v1.1c13-1.9 25.9-7.8 38.9-7.8V0zm-7.5 20.5C26 22.4 13 28.3.1 28.3v1.1c13 0 25.9-5.9 38.9-7.8-.1-.4-.1-.8-.1-1.1zm7.5-.6c-1.9 0-3.9.1-5.8.4v1.1c1.9-.2 3.9-.4 5.8-.4v-1.1z"/></svg>