<svg xmlns="http://www.w3.org/2000/svg" viewBox="0 0 80 34"><path fill="#fff" d="M53.8 19.9l3.8 1.1c-6 5.2-12.9 7.1-19.4 7.2-12.3 0-23-6.9-22.6-12V16c.1-1 .8-2.3 1.4-3 1.7-1.9 5.8-3.9 11.5-6.1 2.4-.9 4.3-1.4 6.7-1.4h1.4c6.6 0 12.8 1.2 18.9 3.2.5.1.9.3 1.3.4l.2.7-9.8 4.1-4.2 1.4c-6.8-2.9-12.1-4.1-15.2-2.9-.1 1.2.1 2.5.9 3.5.5.5 1 1 1.5 1.4 3 2.4 7.3 4.2 12.6 5.5 2.1-.9 3.5-1.5 5.5-2.5l5.5-.4M80 17c0 9.4-17.9 17-40 17S0 26.4 0 17 17.9 0 40 0s40 7.6 40 17m-7.8 0C72.2 9.3 56.4 3 37 3 17.6 3 1.9 9.3 1.9 17S17.6 31 37 31c19.4 0 35.2-6.3 35.2-14m5.7 0c0-4.9-6.7-8.5-10.4-10.1-1.5-.6-3-1.2-4.6-1.7 4.8 2 11.4 5.8 11.4 11.8 0 6-6.5 9.8-11.4 11.8 1.6-.5 3.1-1 4.6-1.7 3.8-1.6 10.4-5.2 10.4-10.1" fill-rule="evenodd" clip-rule="evenodd"/></svg>